<?xml version="1.0" encoding="UTF-8"?>
<!DOCTYPE svg PUBLIC "-//W3C//DTD SVG 1.1//EN" "http://www.w3.org/Graphics/SVG/1.1/DTD/svg11.dtd">
<!-- Creator: CorelDRAW 2019 (64-Bit) -->
<svg xmlns="http://www.w3.org/2000/svg" xml:space="preserve" width="13325px" height="4181px" version="1.1" style="shape-rendering:geometricPrecision; text-rendering:geometricPrecision; image-rendering:optimizeQuality; fill-rule:evenodd; clip-rule:evenodd"
viewBox="0 0 17610.07 5525.81"
 xmlns:xlink="http://www.w3.org/1999/xlink"
 xmlns:xodm="http://www.corel.com/coreldraw/odm/2003">
 <defs>
  <style type="text/css">
   <![CDATA[
    .fil3 {fill:#0075BE}
    .fil4 {fill:#191B38}
    .fil2 {fill:#C2C2C2}
    .fil0 {fill:white}
    .fil1 {fill:#0075BE;fill-rule:nonzero}
    .fil6 {fill:#C2C2C2;fill-rule:nonzero}
    .fil5 {fill:white;fill-rule:nonzero}
   ]]>
  </style>
 </defs>
 <g id="Слой_x0020_1">
  <metadata id="CorelCorpID_0Corel-Layer"/>
  <g id="_2541226898192">
   <g>
    <path class="fil0" d="M2762.91 56.39c1494.76,0 2706.52,1211.75 2706.52,2706.52 0,1494.76 -1211.76,2706.52 -2706.52,2706.52 -1494.77,0 -2706.52,-1211.76 -2706.52,-2706.52 0,-1494.77 1211.75,-2706.52 2706.52,-2706.52z"/>
    <path id="1" class="fil1" d="M5525.81 2762.91l-112.77 0 0 0 -3.45 -136.44 -10.24 -134.6 -16.85 -132.63 -23.3 -130.5 -29.59 -128.19 -35.71 -125.74 -41.66 -123.12 -47.44 -120.32 -53.07 -117.38 -58.52 -114.26 -63.81 -110.98 -68.93 -107.52 -73.89 -103.91 -78.68 -100.12 -83.31 -96.17 -87.76 -92.05 -92.05 -87.76 -96.17 -83.31 -100.12 -78.68 -103.91 -73.89 -107.52 -68.93 -110.98 -63.81 -114.26 -58.52 -117.38 -53.07 -120.32 -47.44 -123.12 -41.66 -125.73 -35.71 -128.2 -29.59 -130.49 -23.3 -132.63 -16.85 -134.61 -10.24 -136.43 -3.45 0 -112.77 142.12 3.59 140.29 10.67 138.27 17.57 136.07 24.3 133.69 30.85 131.13 37.24 128.4 43.44 125.48 49.48 122.41 55.34 119.13 61.02 115.71 66.53 112.1 71.86 108.32 77.03 104.36 82.01 100.24 86.83 95.95 91.48 91.47 95.94 86.83 100.24 82.01 104.36 77.03 108.32 71.86 112.1 66.53 115.71 61.02 119.14 55.34 122.4 49.48 125.48 43.44 128.4 37.24 131.13 30.85 133.69 24.3 136.07 17.57 138.27 10.67 140.29 3.59 142.13 0 0zm-2762.9 2762.9l0 -112.77 0 0 136.43 -3.45 134.61 -10.24 132.63 -16.85 130.49 -23.3 128.2 -29.59 125.73 -35.71 123.12 -41.66 120.32 -47.44 117.38 -53.07 114.26 -58.52 110.98 -63.81 107.52 -68.93 103.91 -73.89 100.12 -78.68 96.17 -83.31 92.05 -87.76 87.76 -92.05 83.31 -96.17 78.68 -100.12 73.89 -103.91 68.93 -107.52 63.81 -110.98 58.52 -114.26 53.07 -117.38 47.44 -120.32 41.66 -123.12 35.71 -125.73 29.59 -128.2 23.3 -130.49 16.85 -132.63 10.24 -134.61 3.45 -136.43 112.77 0 -3.59 142.12 -10.67 140.29 -17.57 138.27 -24.3 136.07 -30.85 133.69 -37.24 131.13 -43.44 128.4 -49.48 125.48 -55.34 122.41 -61.02 119.13 -66.53 115.71 -71.86 112.1 -77.03 108.32 -82.01 104.36 -86.83 100.24 -91.47 95.95 -95.95 91.47 -100.24 86.83 -104.36 82.01 -108.32 77.03 -112.1 71.86 -115.71 66.53 -119.13 61.02 -122.41 55.34 -125.48 49.48 -128.4 43.44 -131.13 37.24 -133.69 30.85 -136.07 24.3 -138.27 17.57 -140.29 10.67 -142.12 3.59 0 0zm-2762.91 -2762.9l112.77 0 0 0 3.45 136.43 10.24 134.61 16.85 132.63 23.3 130.49 29.59 128.2 35.71 125.73 41.66 123.12 47.44 120.32 53.07 117.38 58.52 114.26 63.81 110.98 68.93 107.52 73.89 103.91 78.68 100.12 83.31 96.17 87.76 92.05 92.05 87.76 96.17 83.31 100.12 78.68 103.91 73.89 107.52 68.93 110.98 63.81 114.26 58.52 117.38 53.07 120.32 47.44 123.12 41.66 125.74 35.71 128.19 29.59 130.5 23.3 132.63 16.85 134.6 10.24 136.44 3.45 0 112.77 -142.13 -3.59 -140.29 -10.67 -138.27 -17.57 -136.07 -24.3 -133.69 -30.85 -131.13 -37.24 -128.4 -43.44 -125.48 -49.48 -122.4 -55.34 -119.14 -61.02 -115.71 -66.53 -112.1 -71.86 -108.32 -77.03 -104.36 -82.01 -100.24 -86.83 -95.94 -91.47 -91.48 -95.95 -86.83 -100.24 -82.01 -104.36 -77.03 -108.32 -71.86 -112.1 -66.53 -115.71 -61.02 -119.13 -55.34 -122.41 -49.48 -125.48 -43.44 -128.4 -37.24 -131.13 -30.85 -133.69 -24.3 -136.07 -17.57 -138.27 -10.67 -140.29 -3.59 -142.12 0 0zm2762.91 -2762.91l0 112.77 0 0 -136.44 3.45 -134.6 10.24 -132.63 16.85 -130.5 23.3 -128.19 29.59 -125.74 35.71 -123.12 41.66 -120.32 47.44 -117.38 53.07 -114.26 58.52 -110.98 63.81 -107.52 68.93 -103.91 73.89 -100.12 78.68 -96.17 83.31 -92.05 87.76 -87.76 92.05 -83.31 96.17 -78.68 100.12 -73.89 103.91 -68.93 107.52 -63.81 110.98 -58.52 114.26 -53.07 117.38 -47.44 120.32 -41.66 123.12 -35.71 125.74 -29.59 128.19 -23.3 130.5 -16.85 132.63 -10.24 134.6 -3.45 136.44 -112.77 0 3.59 -142.13 10.67 -140.29 17.57 -138.27 24.3 -136.07 30.85 -133.69 37.24 -131.13 43.44 -128.4 49.48 -125.48 55.34 -122.4 61.02 -119.14 66.53 -115.71 71.86 -112.1 77.03 -108.32 82.01 -104.36 86.83 -100.24 91.48 -95.94 95.94 -91.48 100.24 -86.83 104.36 -82.01 108.32 -77.03 112.1 -71.86 115.71 -66.53 119.14 -61.02 122.4 -55.34 125.48 -49.48 128.4 -43.44 131.13 -37.24 133.69 -30.85 136.07 -24.3 138.27 -17.57 140.29 -10.67 142.13 -3.59 0 0z"/>
   </g>
   <path class="fil2" d="M336.94 3093.17c36.41,117.33 327.73,242.76 623.09,368.19l2674.44 1132.9 -1230 -821.35c-412.7,-275.14 -821.35,-546.22 -740.43,-825.4 80.92,-275.13 651.42,-558.35 1221.91,-841.58 93.06,-44.5 129.47,-153.75 84.97,-242.76 -44.51,-89.01 -153.75,-125.43 -242.76,-80.92l-331.78 161.84 -1436.35 712.11c-441.02,214.44 -659.51,323.68 -623.09,436.97z"/>
   <path class="fil3" d="M3788.22 406.59c-117.33,-24.28 -372.24,165.89 -627.14,356.05l-2318.39 1747.9 1327.11 -651.42c441.02,-218.48 882.04,-436.97 1084.34,-226.58 198.26,206.35 157.8,841.58 117.34,1476.81 -8.1,101.16 68.78,186.12 165.88,194.22 101.16,8.09 186.12,-68.79 194.22,-169.94l24.27 -368.19 105.2 -1598.19c32.37,-493.62 48.55,-736.38 -72.83,-760.66l0 0z"/>
   <path class="fil4" d="M4391.08 4739.91c80.92,-89.01 44.51,-404.6 4.05,-720.19l-356.05 -2880.79 -93.06 1472.76c-32.37,493.62 -64.74,983.19 -347.96,1051.97 -279.18,68.78 -809.21,-283.22 -1339.25,-639.27 -84.96,-52.6 -194.21,-32.37 -250.85,52.6 -56.65,80.92 -32.37,194.21 48.55,250.85l307.5 206.35 1335.2 890.13c408.65,271.09 610.95,408.65 691.87,315.59z"/>
   <path class="fil5" d="M7201.44 3975.06l28.64 -282.31 289.87 0 0 66.83 -228.87 0 -17.11 154.09c27.72,-16.31 59.28,-24.4 94.42,-24.4 51.58,0 92.55,16.97 122.79,51.05 30.36,34.08 45.48,80.09 45.48,138.04 0,58.35 -15.78,104.23 -47.21,137.78 -31.43,33.54 -75.45,50.25 -131.94,50.25 -49.99,0 -90.7,-13.92 -122.39,-41.63 -31.56,-27.72 -49.6,-66.04 -53.97,-114.97l68.02 0c4.38,32.35 15.92,56.75 34.61,73.06 18.57,16.44 43.23,24.67 73.73,24.67 33.42,0 59.67,-11.41 78.77,-34.22 18.96,-22.67 28.51,-54.1 28.51,-94.28 0,-37.79 -10.34,-68.02 -30.9,-90.96 -20.55,-22.94 -48,-34.35 -82.21,-34.35 -31.3,0 -55.96,6.9 -73.73,20.56l-19.09 15.64 -57.42 -14.85zm432.29 283.38l0 -565.69 159.65 0c49.2,0 92.69,10.87 130.62,32.62 37.79,21.75 66.96,52.78 87.52,92.82 20.68,40.18 31.02,86.33 31.29,138.31l0 36.2c0,53.3 -10.34,100.11 -30.9,140.29 -20.55,40.05 -49.99,70.95 -88.18,92.43 -38.19,21.48 -82.61,32.49 -133.4,33.02l-156.6 0zm74.65 -504.43l0 443.16 78.37 0c57.55,0 102.24,-17.9 134.33,-53.57 31.96,-35.8 47.87,-86.59 47.87,-152.63l0 -33.01c0,-64.32 -14.98,-114.18 -45.22,-149.71 -30.1,-35.67 -72.93,-53.71 -128.36,-54.24l-86.99 0zm892.29 504.43c-4.1,-8.23 -7.42,-22.94 -10.07,-44.16 -33.42,34.74 -73.33,52.11 -119.61,52.11 -41.51,0 -75.45,-11.67 -101.97,-35.14 -26.53,-23.47 -39.79,-53.17 -39.79,-89.11 0,-43.76 16.58,-77.84 49.86,-101.97 33.29,-24.27 80.1,-36.33 140.43,-36.33l69.88 0 0 -33.02c0,-25.06 -7.42,-45.09 -22.41,-60.07 -15.11,-14.85 -37.26,-22.28 -66.43,-22.28 -25.73,0 -47.21,6.5 -64.58,19.36 -17.37,13 -25.99,28.64 -25.99,46.94l-72.27 0c0,-20.95 7.43,-41.24 22.28,-60.86 14.98,-19.49 35.14,-35.01 60.73,-46.41 25.46,-11.41 53.44,-17.11 84.07,-17.11 48.4,0 86.33,12.07 113.78,36.33 27.45,24.14 41.77,57.56 42.7,99.99l0 193.47c0,38.58 5.03,69.22 14.85,92.02l0 6.24 -75.46 0zm-119.21 -53.31c22.55,0 43.89,-5.84 64.05,-17.64 20.29,-11.67 34.88,-27.05 43.89,-45.75l0 -86.98 -56.22 0c-88.05,0 -132.07,25.99 -132.07,77.97 0,22.67 7.42,40.44 22.41,53.17 15.11,12.86 34.34,19.23 57.94,19.23zm275.02 -160.19c0,-64.57 15.39,-116.42 45.89,-155.67 30.63,-39.25 70.54,-58.88 120,-58.88 49.33,0 88.18,16.84 116.96,50.52l0 -219.19 71.87 0 0 596.72 -66.04 0 -3.44 -44.96c-28.78,35.28 -68.83,52.91 -120.01,52.91 -48.8,0 -88.45,-19.89 -119.08,-59.8 -30.76,-39.92 -46.15,-92.03 -46.15,-156.21l0 -5.44zm71.88 8.09c0,47.61 9.94,84.87 29.57,111.79 19.75,26.92 46.94,40.31 81.55,40.31 45.61,0 78.9,-20.42 99.85,-61.26l0 -192.81c-21.48,-39.65 -54.5,-59.41 -99.06,-59.41 -35.14,0 -62.59,13.53 -82.34,40.71 -19.63,27.19 -29.57,67.37 -29.57,120.67zm376.86 -8.09c0,-64.57 15.38,-116.42 45.88,-155.67 30.63,-39.25 70.54,-58.88 120,-58.88 49.33,0 88.18,16.84 116.96,50.52l0 -219.19 71.87 0 0 596.72 -66.03 0 -3.45 -44.96c-28.78,35.28 -68.82,52.91 -120.01,52.91 -48.8,0 -88.45,-19.89 -119.08,-59.8 -30.76,-39.92 -46.14,-92.03 -46.14,-156.21l0 -5.44zm71.87 8.09c0,47.61 9.94,84.87 29.57,111.79 19.76,26.92 46.94,40.31 81.55,40.31 45.61,0 78.9,-20.42 99.85,-61.26l0 -192.81c-21.48,-39.65 -54.5,-59.41 -99.06,-59.41 -35.14,0 -62.58,13.53 -82.34,40.71 -19.63,27.19 -29.57,67.37 -29.57,120.67zm472.6 205.41l-71.87 0 0 -420.09 71.87 0 0 420.09zm-77.71 -531.88c0,-11.67 3.58,-21.61 10.61,-29.7 7.16,-8.09 17.77,-12.07 31.69,-12.07 14.06,0 24.67,3.98 31.83,12.07 7.29,8.09 10.87,18.03 10.87,29.7 0,11.67 -3.58,21.48 -10.87,29.31 -7.16,7.82 -17.77,11.67 -31.83,11.67 -13.92,0 -24.53,-3.85 -31.69,-11.67 -7.03,-7.83 -10.61,-17.64 -10.61,-29.31zm290.27 9.95l0 101.84 78.37 0 0 55.69 -78.37 0 0 260.57c0,16.84 3.45,29.44 10.48,37.92 6.89,8.36 18.83,12.6 35.67,12.6 8.35,0 19.76,-1.59 34.21,-4.64l0 58.21c-18.96,5.04 -37.26,7.69 -55.16,7.69 -32.09,0 -56.36,-9.68 -72.67,-29.17 -16.31,-19.36 -24.4,-46.94 -24.4,-82.61l0 -260.57 -76.64 0 0 -55.69 76.64 0 0 -101.84 71.87 0zm240.41 521.93l-71.87 0 0 -420.09 71.87 0 0 420.09zm-77.7 -531.88c0,-11.67 3.58,-21.61 10.61,-29.7 7.16,-8.09 17.76,-12.07 31.69,-12.07 14.06,0 24.66,3.98 31.82,12.07 7.3,8.09 10.88,18.03 10.88,29.7 0,11.67 -3.58,21.48 -10.88,29.31 -7.16,7.82 -17.76,11.67 -31.82,11.67 -13.93,0 -24.53,-3.85 -31.69,-11.67 -7.03,-7.83 -10.61,-17.64 -10.61,-29.31zm331.11 434.41l104.1 -322.62 73.46 0 -150.77 420.09 -54.77 0 -152.23 -420.09 73.33 0 106.88 322.62zm416.25 105.42c-56.89,0 -103.3,-18.69 -139.11,-56.09 -35.67,-37.53 -53.57,-87.52 -53.57,-150.24l0 -13.26c0,-41.64 7.96,-78.9 23.87,-111.65 15.91,-32.76 38.19,-58.48 66.83,-76.91 28.65,-18.57 59.68,-27.85 93.09,-27.85 54.64,0 97.07,18.04 127.43,53.97 30.24,36.07 45.49,87.65 45.49,154.75l0 29.97 -284.84 0c1.06,41.37 13.13,74.79 36.34,100.25 23.2,25.46 52.64,38.19 88.44,38.19 25.33,0 46.81,-5.18 64.45,-15.52 17.64,-10.34 33.02,-24 46.28,-40.97l43.89 34.21c-35.27,54.1 -88.18,81.15 -158.59,81.15zm-8.89 -377.12c-29.04,0 -53.3,10.61 -73.06,31.82 -19.63,21.22 -31.83,50.92 -36.47,89.11l210.58 0 0 -5.44c-2.12,-36.73 -11.94,-65.1 -29.57,-85.26 -17.64,-20.16 -41.51,-30.23 -71.48,-30.23zm520.34 -50.92l1.86 46.41c30.89,-36.2 72.4,-54.37 124.78,-54.37 58.74,0 98.79,22.54 120,67.63 13.93,-20.29 32.23,-36.6 54.63,-48.93 22.28,-12.47 48.8,-18.7 79.44,-18.7 92.16,0 138.96,48.8 140.55,146.4l0 281.65 -71.87 0 0 -277.15c0,-29.96 -6.89,-52.51 -20.55,-67.36 -13.79,-14.85 -36.73,-22.28 -69.22,-22.28 -26.65,0 -48.8,7.96 -66.43,23.87 -17.51,15.91 -27.85,37.26 -30.64,64.18l0 278.74 -72.26 0 0 -275.16c0,-61.13 -29.97,-91.63 -89.78,-91.63 -47.07,0 -79.29,20.03 -96.67,60.21l0 306.58 -71.87 0 0 -420.09 68.03 0zm889.37 420.09c-4.11,-8.23 -7.42,-22.94 -10.07,-44.16 -33.42,34.74 -73.33,52.11 -119.61,52.11 -41.51,0 -75.45,-11.67 -101.97,-35.14 -26.53,-23.47 -39.79,-53.17 -39.79,-89.11 0,-43.76 16.58,-77.84 49.86,-101.97 33.29,-24.27 80.1,-36.33 140.43,-36.33l69.88 0 0 -33.02c0,-25.06 -7.42,-45.09 -22.41,-60.07 -15.11,-14.85 -37.26,-22.28 -66.43,-22.28 -25.73,0 -47.21,6.5 -64.58,19.36 -17.37,13 -25.99,28.64 -25.99,46.94l-72.27 0c0,-20.95 7.43,-41.24 22.28,-60.86 14.98,-19.49 35.14,-35.01 60.73,-46.41 25.46,-11.41 53.44,-17.11 84.07,-17.11 48.4,0 86.33,12.07 113.78,36.33 27.45,24.14 41.77,57.56 42.7,99.99l0 193.47c0,38.58 5.03,69.22 14.85,92.02l0 6.24 -75.46 0zm-119.21 -53.31c22.55,0 43.9,-5.84 64.05,-17.64 20.29,-11.67 34.88,-27.05 43.89,-45.75l0 -86.98 -56.22 0c-88.05,0 -132.07,25.99 -132.07,77.97 0,22.67 7.42,40.44 22.4,53.17 15.12,12.86 34.35,19.23 57.95,19.23zm360.69 -366.78l2.25 52.64c32.09,-40.44 74.13,-60.6 125.84,-60.6 88.85,0 133.67,50.13 134.46,150.37l0 277.68 -71.87 0 0 -277.94c-0.26,-30.23 -7.16,-52.65 -20.82,-67.1 -13.52,-14.45 -34.74,-21.75 -63.52,-21.75 -23.2,0 -43.76,6.24 -61.39,18.57 -17.5,12.46 -31.3,28.77 -41.11,48.93l0 299.29 -71.87 0 0 -420.09 68.03 0zm630.26 378.71c-27.84,32.89 -68.95,49.33 -123.05,49.33 -44.82,0 -78.9,-12.99 -102.37,-38.98 -23.48,-26.13 -35.28,-64.58 -35.54,-115.63l0 -273.43 71.87 0 0 271.3c0,63.65 25.86,95.48 77.71,95.48 54.89,0 91.36,-20.42 109.53,-61.26l0 -305.52 71.87 0 0 420.09 -68.43 0 -1.59 -41.38zm214.55 41.38l0 -364.4 -66.43 0 0 -55.69 66.43 0 0 -43.1c0,-45.08 12.07,-79.96 36.21,-104.62 24,-24.53 58.08,-36.87 102.1,-36.87 16.58,0 33.02,2.26 49.33,6.63l-3.85 58.08c-12.2,-2.25 -25.19,-3.44 -38.85,-3.44 -23.34,0 -41.37,6.76 -53.97,20.42 -12.73,13.66 -19.09,33.15 -19.09,58.61l0 44.29 89.77 0 0 55.69 -89.77 0 0 364.4 -71.88 0zm500.45 0c-4.11,-8.23 -7.42,-22.94 -10.08,-44.16 -33.41,34.74 -73.33,52.11 -119.6,52.11 -41.51,0 -75.46,-11.67 -101.98,-35.14 -26.52,-23.47 -39.78,-53.17 -39.78,-89.11 0,-43.76 16.58,-77.84 49.86,-101.97 33.29,-24.27 80.09,-36.33 140.43,-36.33l69.88 0 0 -33.02c0,-25.06 -7.42,-45.09 -22.41,-60.07 -15.12,-14.85 -37.26,-22.28 -66.43,-22.28 -25.73,0 -47.21,6.5 -64.58,19.36 -17.37,13 -25.99,28.64 -25.99,46.94l-72.27 0c0,-20.95 7.43,-41.24 22.28,-60.86 14.98,-19.49 35.14,-35.01 60.73,-46.41 25.46,-11.41 53.44,-17.11 84.07,-17.11 48.4,0 86.33,12.07 113.77,36.33 27.45,24.14 41.78,57.56 42.7,99.99l0 193.47c0,38.58 5.04,69.22 14.85,92.02l0 6.24 -75.45 0zm-119.21 -53.31c22.54,0 43.89,-5.84 64.05,-17.64 20.29,-11.67 34.87,-27.05 43.89,-45.75l0 -86.98 -56.22 0c-88.05,0 -132.08,25.99 -132.08,77.97 0,22.67 7.43,40.44 22.41,53.17 15.12,12.86 34.35,19.23 57.95,19.23zm460.93 2.39c25.73,0 48.14,-7.7 67.23,-23.21 19.23,-15.51 29.84,-34.88 31.83,-58.21l68.02 0c-1.32,24.13 -9.54,47.07 -24.79,68.82 -15.39,21.75 -35.81,39.12 -61.27,52.11 -25.46,12.86 -52.51,19.36 -81.02,19.36 -57.15,0 -102.77,-19.09 -136.58,-57.28 -33.68,-38.19 -50.65,-90.57 -50.65,-156.87l0 -12.07c0,-40.84 7.55,-77.31 22.54,-109.13 14.98,-31.83 36.6,-56.62 64.71,-74.26 28.11,-17.64 61.26,-26.39 99.59,-26.39 47.2,0 86.32,14.06 117.61,42.3 31.17,28.25 47.74,64.98 49.86,109.93l-68.02 0c-1.99,-27.18 -12.33,-49.59 -30.9,-67.1 -18.43,-17.5 -41.37,-26.25 -68.55,-26.25 -36.47,0 -64.72,13.12 -84.87,39.38 -20.02,26.39 -30.1,64.31 -30.1,114.17l0 13.53c0,48.4 9.94,85.79 29.97,111.92 19.89,26.12 48.4,39.25 85.39,39.25zm345.83 -471.01l0 101.84 78.37 0 0 55.69 -78.37 0 0 260.57c0,16.84 3.45,29.44 10.48,37.92 6.9,8.36 18.83,12.6 35.67,12.6 8.35,0 19.76,-1.59 34.21,-4.64l0 58.21c-18.96,5.04 -37.26,7.69 -55.16,7.69 -32.09,0 -56.36,-9.68 -72.67,-29.17 -16.31,-19.36 -24.4,-46.94 -24.4,-82.61l0 -260.57 -76.64 0 0 -55.69 76.64 0 0 -101.84 71.87 0zm421.55 480.55c-27.84,32.89 -68.95,49.33 -123.05,49.33 -44.82,0 -78.9,-12.99 -102.37,-38.98 -23.48,-26.13 -35.28,-64.58 -35.54,-115.63l0 -273.43 71.87 0 0 271.3c0,63.65 25.86,95.48 77.71,95.48 54.89,0 91.36,-20.42 109.53,-61.26l0 -305.52 71.87 0 0 420.09 -68.43 0 -1.59 -41.38zm382.3 -314.67c-10.87,-1.85 -22.68,-2.78 -35.27,-2.78 -47.21,0 -79.17,20.02 -96.01,60.2l0 298.63 -71.87 0 0 -420.09 69.88 0 1.2 48.4c23.6,-37.53 57.02,-56.36 100.25,-56.36 14.05,0 24.66,1.86 31.82,5.44l0 66.56zm144.41 356.05l-71.88 0 0 -420.09 71.88 0 0 420.09zm-77.71 -531.88c0,-11.67 3.58,-21.61 10.61,-29.7 7.16,-8.09 17.77,-12.07 31.69,-12.07 14.06,0 24.66,3.98 31.83,12.07 7.29,8.09 10.87,18.03 10.87,29.7 0,11.67 -3.58,21.48 -10.87,29.31 -7.17,7.82 -17.77,11.67 -31.83,11.67 -13.92,0 -24.53,-3.85 -31.69,-11.67 -7.03,-7.83 -10.61,-17.64 -10.61,-29.31zm260.7 111.79l2.25 52.64c32.09,-40.44 74.13,-60.6 125.85,-60.6 88.84,0 133.66,50.13 134.46,150.37l0 277.68 -71.87 0 0 -277.94c-0.27,-30.23 -7.17,-52.65 -20.82,-67.1 -13.53,-14.45 -34.75,-21.75 -63.52,-21.75 -23.21,0 -43.76,6.24 -61.4,18.57 -17.5,12.46 -31.29,28.77 -41.1,48.93l0 299.29 -71.88 0 0 -420.09 68.03 0zm353.79 206.59c0,-65.63 15.11,-117.75 45.48,-156.47 30.23,-38.72 70.41,-58.08 120.4,-58.08 51.32,0 91.37,18.17 120.01,54.37l3.58 -46.41 65.64 0 0 410.01c0,54.37 -16.18,97.2 -48.4,128.62 -32.22,31.3 -75.58,46.94 -129.95,46.94 -30.23,0 -59.94,-6.49 -88.98,-19.35 -28.91,-13 -51.05,-30.64 -66.43,-53.18l37.39 -43.1c30.76,37.8 68.43,56.76 112.98,56.76 35.01,0 62.19,-9.81 81.82,-29.44 19.49,-19.62 29.3,-47.34 29.3,-82.88l0 -36.06c-28.77,33.15 -68.02,49.72 -117.75,49.72 -49.2,0 -88.98,-19.76 -119.48,-59.4 -30.36,-39.65 -45.61,-93.75 -45.61,-162.05zm72.26 8.09c0,47.34 9.69,84.47 29.18,111.52 19.36,27.05 46.54,40.58 81.55,40.58 45.35,0 78.63,-20.56 99.85,-61.66l0 -191.75c-22.01,-40.04 -55.03,-60.07 -99.05,-60.07 -35.01,0 -62.33,13.53 -81.95,40.71 -19.76,27.19 -29.58,67.37 -29.58,120.67z"/>
   <g id="_2541226896208">
    <path class="fil5" d="M6954.32 2454.92c0,-74.39 -26.84,-132.07 -80.54,-172.25 -53.7,-40.58 -150.53,-81.16 -290.06,-122.53 -139.95,-40.98 -251.42,-87.13 -334,-137.65 -157.85,-97.07 -237.17,-223.97 -237.17,-380.32 0,-136.85 56.95,-249.43 171.26,-338.14 113.91,-88.72 262,-132.88 443.84,-132.88 120.83,0 228.23,21.88 323.01,65.25 94.39,43.76 168.83,105.42 222.94,186.18 53.7,80.36 80.96,169.47 80.96,267.73l-300.24 0c0,-88.71 -28.47,-157.94 -85.43,-207.66 -56.54,-50.13 -137.91,-75.19 -243.68,-75.19 -98.45,0 -174.93,20.69 -229.44,61.66 -54.52,40.98 -81.77,98.26 -81.77,172.26 0,62.06 29.69,113.78 88.28,155.15 58.99,41.37 155.81,81.55 290.87,120.94 135.06,38.98 243.68,83.94 325.45,134.06 81.77,50.13 141.58,107.81 179.82,172.66 38.24,65.24 57.36,141.22 57.36,228.35 0,141.62 -55.33,254.2 -166.39,338.14 -110.65,83.55 -261.18,125.32 -451.16,125.32 -125.3,0 -240.84,-22.68 -346.2,-68.43 -105.37,-45.35 -187.14,-108.2 -245.31,-188.17 -58.58,-79.96 -87.87,-173.45 -87.87,-280.06l301.86 0c0,96.27 32.54,170.66 97.63,223.57 65.09,52.91 158.25,79.17 279.89,79.17 104.96,0 183.88,-20.69 236.77,-62.46 52.88,-41.37 79.32,-96.27 79.32,-164.7zm901.1 -1128.62l0 305.53 227.41 0 0 210.05 -227.41 0 0 703.75c0,48.13 9.77,83.14 29.29,104.23 19.12,21.48 54.11,32.22 104.15,32.22 33.36,0 67.12,-3.98 101.3,-11.54l0 218.8c-65.91,17.91 -129.37,26.66 -190.8,26.66 -222.53,0 -333.59,-120.14 -333.59,-360.03l0 -714.09 -212.36 0 0 -210.05 212.36 0 0 -305.53 289.65 0zm1016.23 1589.7c-183.47,0 -332.37,-56.49 -446.28,-169.47 -113.91,-113.38 -171.27,-263.76 -171.27,-451.93l0 -35.01c0,-125.71 24.82,-238.29 74.86,-337.35 49.63,-99.06 119.2,-176.23 209.1,-231.53 89.5,-55.3 189.58,-82.75 300.23,-82.75 175.75,0 311.22,54.9 406.82,164.7 96.01,109.8 143.61,264.95 143.61,465.45l0 114.57 -842.52 0c8.95,103.83 44.34,185.79 106.58,245.86 62.65,60.47 141.17,90.7 235.55,90.7 132.62,0 240.83,-52.11 324.23,-156.74l156.22 145.6c-51.67,75.59 -120.82,134.07 -207.07,175.44 -86.24,41.77 -182.66,62.46 -290.06,62.46zm-34.58 -1081.28c-79.33,0 -143.61,27.45 -192.42,81.95 -48.82,54.5 -80.15,130.88 -93.57,228.35l551.64 0 0 -21.08c-6.1,-95.08 -32.14,-167.09 -77.29,-216.02 -45.16,-48.93 -108.22,-73.2 -188.36,-73.2zm1451.93 54.5c-38.24,-5.97 -77.7,-9.15 -117.98,-9.15 -132.62,0 -222.12,49.73 -268.09,149.18l0 862.88 -289.65 0 0 -1260.3 276.23 0 7.32 140.43c69.97,-109.4 166.79,-164.3 290.87,-164.3 41.09,0 75.26,5.57 102.52,16.31l-1.22 264.95zm728.2 1026.78c-183.47,0 -332.37,-56.49 -446.28,-169.47 -113.91,-113.38 -171.27,-263.76 -171.27,-451.93l0 -35.01c0,-125.71 24.82,-238.29 74.86,-337.35 49.63,-99.06 119.2,-176.23 209.1,-231.53 89.5,-55.3 189.58,-82.75 300.23,-82.75 175.75,0 311.22,54.9 406.82,164.7 96.01,109.8 143.61,264.95 143.61,465.45l0 114.57 -842.52 0c8.95,103.83 44.34,185.79 106.58,245.86 62.65,60.47 141.17,90.7 235.55,90.7 132.62,0 240.83,-52.11 324.23,-156.74l156.22 145.6c-51.67,75.59 -120.82,134.07 -207.07,175.44 -86.24,41.77 -182.66,62.46 -290.06,62.46zm-34.58 -1081.28c-79.33,0 -143.61,27.45 -192.42,81.95 -48.82,54.5 -80.15,130.88 -93.57,228.35l551.64 0 0 -21.08c-6.1,-95.08 -32.14,-167.09 -77.29,-216.02 -45.16,-48.93 -108.22,-73.2 -188.36,-73.2zm721.29 415.72c0,-123.72 25.22,-235.11 75.26,-334.17 50.04,-99.06 120.42,-175.04 211.14,-228.35 90.31,-53.3 194.45,-79.96 312.02,-79.96 174.12,0 315.29,54.9 423.91,164.3 108.21,109.8 166.79,255.01 175.74,436.01l1.22 66.44c0,124.52 -24.41,235.51 -73.23,333.38 -49.22,97.86 -118.79,173.84 -209.91,227.55 -91.13,53.7 -196.09,80.36 -315.29,80.36 -181.84,0 -327.48,-59.28 -436.92,-177.83 -109.02,-118.55 -163.94,-276.48 -163.94,-473.8l0 -13.93zm289.65 23.87c0,129.69 27.66,231.14 82.58,304.73 54.52,73.6 131,110.2 228.63,110.2 97.64,0 173.71,-37.4 228.23,-111.79 54.51,-74.79 81.77,-183.79 81.77,-327.8 0,-127.31 -28.07,-228.35 -84.21,-303.14 -55.74,-74.4 -131.81,-111.79 -228.23,-111.79 -94.38,0 -169.64,36.6 -224.97,110.2 -55.73,73.59 -83.8,182.99 -83.8,329.39z"/>
    <path class="fil6" d="M13512.21 1326.3l0 305.53 227.41 0 0 210.05 -227.41 0 0 703.75c0,48.13 9.76,83.14 29.29,104.23 19.12,21.48 54.1,32.22 104.14,32.22 33.36,0 67.13,-3.98 101.3,-11.54l0 218.8c-65.91,17.91 -129.37,26.66 -190.8,26.66 -222.53,0 -333.59,-120.14 -333.59,-360.03l0 -714.09 -212.36 0 0 -210.05 212.36 0 0 -305.53 289.66 0zm1016.22 1589.7c-183.47,0 -332.37,-56.49 -446.27,-169.47 -113.91,-113.38 -171.28,-263.76 -171.28,-451.93l0 -35.01c0,-125.71 24.82,-238.29 74.86,-337.35 49.63,-99.06 119.2,-176.23 209.1,-231.53 89.5,-55.3 189.58,-82.75 300.23,-82.75 175.75,0 311.22,54.9 406.82,164.7 96.01,109.8 143.61,264.95 143.61,465.45l0 114.57 -842.52 0c8.95,103.83 44.34,185.79 106.58,245.86 62.65,60.47 141.17,90.7 235.55,90.7 132.62,0 240.84,-52.11 324.24,-156.74l156.21 145.6c-51.66,75.59 -120.82,134.07 -207.07,175.44 -86.24,41.77 -182.66,62.46 -290.06,62.46zm-34.58 -1081.28c-79.33,0 -143.6,27.45 -192.42,81.95 -48.82,54.5 -80.14,130.88 -93.57,228.35l551.64 0 0 -21.08c-6.1,-95.08 -32.13,-167.09 -77.29,-216.02 -45.16,-48.93 -108.21,-73.2 -188.36,-73.2zm1305.48 854.52c72,0 132.21,-20.69 179.81,-61.66 47.6,-40.98 73.23,-91.9 76.07,-152.37l272.98 0c-2.85,78.77 -28.07,151.97 -74.86,220 -46.78,68.02 -110.65,121.73 -190.79,161.51 -80.15,39.39 -166.8,59.28 -259.96,59.28 -180.22,0 -323.42,-57.29 -428.78,-171.46 -105.78,-114.18 -158.66,-272.11 -158.66,-473.41l0 -29.04c0,-191.75 52.48,-345.71 157.44,-461.08 104.96,-115.36 247.75,-173.05 428.78,-173.05 153.37,0 278.67,43.76 375.09,131.28 96.41,87.12 147.26,202.1 151.74,344.51l-272.98 0c-2.84,-72.8 -28.07,-132.07 -75.66,-179.01 -47.19,-46.55 -107.4,-70.02 -180.22,-70.02 -93.98,0 -166.39,33.42 -217.24,99.85 -50.86,66.44 -76.48,167.09 -77.3,302.35l0 45.35c0,136.85 25.22,238.69 75.67,305.92 50.45,67.23 123.26,101.05 218.87,101.05zm1033.72 -920.56c94.38,-107.01 213.98,-160.72 358.81,-160.72 274.6,0 414.14,153.56 418.21,460.28l0 823.89 -289.66 0 0 -813.55c0,-87.12 -19.12,-148.78 -57.76,-184.98 -38.65,-36.21 -95.2,-54.11 -169.65,-54.11 -116.35,0 -203,50.53 -259.95,151.57l0 901.07 -289.66 0 0 -1790.2 289.66 0 0 666.75z"/>
   </g>
   <rect class="fil2" x="6935.45" y="3260.7" width="9698.37" height="112.77"/>
  </g>
 </g>
</svg>
