<?xml version="1.0" encoding="UTF-8"?>
<!DOCTYPE svg PUBLIC "-//W3C//DTD SVG 1.1//EN" "http://www.w3.org/Graphics/SVG/1.1/DTD/svg11.dtd">
<!-- Creator: CorelDRAW 2019 (64-Bit) -->
<svg xmlns="http://www.w3.org/2000/svg" xml:space="preserve" width="16502px" height="4181px" version="1.1" style="shape-rendering:geometricPrecision; text-rendering:geometricPrecision; image-rendering:optimizeQuality; fill-rule:evenodd; clip-rule:evenodd"
viewBox="0 0 16785.39 4253.2"
 xmlns:xlink="http://www.w3.org/1999/xlink"
 xmlns:xodm="http://www.corel.com/coreldraw/odm/2003">
 <defs>
  <style type="text/css">
   <![CDATA[
    .str0 {stroke:#0075BE;stroke-width:86.8;stroke-miterlimit:22.9256}
    .fil2 {fill:#0075BE}
    .fil3 {fill:#191B38}
    .fil1 {fill:#C2C2C2}
    .fil0 {fill:white}
    .fil5 {fill:#0075BE;fill-rule:nonzero}
    .fil4 {fill:#191B38;fill-rule:nonzero}
   ]]>
  </style>
 </defs>
 <g id="Слой_x0020_1">
  <metadata id="CorelCorpID_0Corel-Layer"/>
  <g id="_1868581140400">
   <g>
    <path class="fil0 str0" d="M2126.6 43.4c1150.52,0 2083.2,932.68 2083.2,2083.2 0,1150.52 -932.68,2083.2 -2083.2,2083.2 -1150.52,0 -2083.2,-932.68 -2083.2,-2083.2 0,-1150.52 932.68,-2083.2 2083.2,-2083.2z"/>
    <path class="fil1" d="M259.34 2380.8c28.03,90.31 252.25,186.86 479.59,283.4l2058.51 871.98 -946.73 -632.19c-317.65,-211.76 -632.18,-420.42 -569.9,-635.3 62.28,-211.77 501.39,-429.76 940.5,-647.76 71.62,-34.26 99.65,-118.34 65.4,-186.85 -34.26,-68.52 -118.34,-96.55 -186.86,-62.29l-255.36 124.57 -1105.56 548.11c-339.45,165.05 -507.62,249.13 -479.59,336.33z"/>
    <path class="fil2" d="M2915.78 312.95c-90.31,-18.68 -286.51,127.68 -482.7,274.05l-1784.46 1345.35 1021.47 -501.39c339.45,-168.17 678.9,-336.34 834.61,-174.4 152.6,158.83 121.46,647.77 90.31,1136.7 -6.22,77.86 52.95,143.25 127.69,149.48 77.85,6.23 143.25,-52.94 149.48,-130.79l18.69 -283.4 80.97 -1230.12c24.91,-379.94 37.37,-566.79 -56.06,-585.48l0 0z"/>
    <path class="fil3" d="M3379.8 3648.29c62.29,-68.51 34.26,-311.42 3.12,-554.33l-274.06 -2217.33 -71.62 1133.58c-24.92,379.93 -49.83,756.76 -267.83,809.7 -214.88,52.94 -622.84,-218 -1030.81,-492.05 -65.4,-40.49 -149.48,-24.91 -193.08,40.49 -43.6,62.28 -24.92,149.48 37.37,193.08l236.68 158.82 1027.7 685.13c314.54,208.66 470.25,314.54 532.53,242.91z"/>
   </g>
   <g>
    <path class="fil4" d="M5849.47 2584.28c0,-76.35 -27.56,-135.55 -82.67,-176.78 -55.11,-41.65 -154.48,-83.29 -297.69,-125.75 -143.62,-42.06 -258.02,-89.42 -342.78,-141.27 -161.99,-99.62 -243.4,-229.86 -243.4,-390.31 0,-140.45 58.45,-256 175.77,-347.04 116.9,-91.05 268.88,-136.37 455.5,-136.37 124.01,0 234.23,22.45 331.51,66.96 96.86,44.91 173.27,108.19 228.8,191.07 55.11,82.48 83.08,173.93 83.08,274.78l-308.12 0c0,-91.05 -29.23,-162.09 -87.68,-213.13 -58.03,-51.44 -141.54,-77.16 -250.09,-77.16 -101.04,0 -179.53,21.23 -235.48,63.28 -55.94,42.06 -83.92,100.85 -83.92,176.79 0,63.69 30.48,116.77 90.6,159.23 60.54,42.46 159.91,83.7 298.52,124.12 138.62,40.01 250.09,86.14 334.01,137.59 83.93,51.44 145.3,110.64 184.54,177.19 39.25,66.96 58.88,144.94 58.88,234.35 0,145.35 -56.79,260.9 -170.77,347.04 -113.56,85.74 -268.04,128.61 -463.02,128.61 -128.59,0 -247.17,-23.27 -355.3,-70.22 -108.14,-46.55 -192.06,-111.06 -251.76,-193.12 -60.13,-82.06 -90.19,-178.01 -90.19,-287.43l309.8 0c0,98.8 33.4,175.15 100.2,229.45 66.8,54.31 162.41,81.25 287.25,81.25 107.72,0 188.72,-21.23 242.99,-64.1 54.28,-42.46 81.42,-98.8 81.42,-169.03zm924.79 -1158.29l0 313.56 233.39 0 0 215.57 -233.39 0 0 722.25c0,49.4 10.02,85.33 30.06,106.97 19.62,22.05 55.53,33.07 106.88,33.07 34.24,0 68.89,-4.08 103.96,-11.84l0 224.56c-67.63,18.37 -132.77,27.35 -195.81,27.35 -228.38,0 -342.36,-123.3 -342.36,-369.49l0 -732.87 -217.94 0 0 -215.57 217.94 0 0 -313.56 297.27 0zm1042.95 1631.49c-188.3,0 -341.11,-57.97 -458.02,-173.93 -116.9,-116.36 -175.77,-270.69 -175.77,-463.8l0 -35.93c0,-129.02 25.47,-244.56 76.82,-346.23 50.94,-101.66 122.34,-180.86 214.61,-237.61 91.85,-56.76 194.56,-84.93 308.12,-84.93 180.37,0 319.4,56.35 417.51,169.03 98.54,112.69 147.39,271.92 147.39,477.69l0 117.58 -864.67 0c9.18,106.57 45.51,190.67 109.38,252.32 64.3,62.06 144.88,93.09 241.74,93.09 136.11,0 247.17,-53.48 332.76,-160.86l160.33 149.43c-53.03,77.57 -124,137.59 -212.52,180.05 -88.51,42.87 -187.46,64.1 -297.68,64.1zm-35.49 -1109.71c-81.42,0 -147.38,28.17 -197.49,84.11 -50.1,55.93 -82.25,134.32 -96.02,234.35l566.14 0 0 -21.64c-6.26,-97.58 -32.98,-171.47 -79.32,-221.69 -46.35,-50.22 -111.06,-75.13 -193.31,-75.13zm1490.1 55.94c-39.24,-6.13 -79.74,-9.39 -121.08,-9.39 -136.11,0 -227.96,51.03 -275.14,153.1l0 885.56 -297.27 0 0 -1293.43 283.49 0 7.52 144.12c71.81,-112.27 171.18,-168.62 298.52,-168.62 42.17,0 77.24,5.72 105.21,16.74l-1.25 271.92zm747.35 1053.77c-188.3,0 -341.11,-57.97 -458.01,-173.93 -116.91,-116.36 -175.78,-270.69 -175.78,-463.8l0 -35.93c0,-129.02 25.47,-244.56 76.83,-346.23 50.93,-101.66 122.33,-180.86 214.6,-237.61 91.85,-56.76 194.56,-84.93 308.12,-84.93 180.37,0 319.4,56.35 417.52,169.03 98.53,112.69 147.38,271.92 147.38,477.69l0 117.58 -864.67 0c9.19,106.57 45.51,190.67 109.39,252.32 64.29,62.06 144.88,93.09 241.74,93.09 136.11,0 247.17,-53.48 332.76,-160.86l160.32 149.43c-53.02,77.57 -124,137.59 -212.51,180.05 -88.52,42.87 -187.47,64.1 -297.69,64.1zm-35.49 -1109.71c-81.41,0 -147.38,28.17 -197.48,84.11 -50.1,55.93 -82.25,134.32 -96.03,234.35l566.15 0 0 -21.64c-6.27,-97.58 -32.99,-171.47 -79.33,-221.69 -46.35,-50.22 -111.06,-75.13 -193.31,-75.13zm740.25 426.66c0,-126.98 25.89,-241.3 77.24,-342.96 51.36,-101.66 123.58,-179.64 216.69,-234.35 92.69,-54.71 199.57,-82.07 320.23,-82.07 178.7,0 323.58,56.35 435.05,168.62 111.06,112.69 171.18,261.71 180.37,447.48l1.25 68.18c0,127.79 -25.05,241.7 -75.15,342.14 -50.52,100.44 -121.92,178.42 -215.44,233.54 -93.52,55.12 -201.24,82.47 -323.57,82.47 -186.63,0 -336.1,-60.83 -448.41,-182.5 -111.89,-121.67 -168.26,-283.76 -168.26,-486.26l0 -14.29zm297.27 24.49c0,133.1 28.39,237.22 84.76,312.75 55.94,75.53 134.44,113.09 234.64,113.09 100.2,0 178.28,-38.38 234.22,-114.73 55.95,-76.75 83.92,-188.62 83.92,-336.42 0,-130.65 -28.81,-234.35 -86.42,-311.11 -57.2,-76.35 -135.28,-114.73 -234.23,-114.73 -96.86,0 -174.1,37.56 -230.88,113.1 -57.2,75.53 -86.01,187.81 -86.01,338.05z"/>
    <path class="fil5" d="M12579.78 1425.99l0 313.56 233.39 0 0 215.57 -233.39 0 0 722.25c0,49.4 10.02,85.33 30.06,106.97 19.62,22.05 55.53,33.07 106.88,33.07 34.24,0 68.89,-4.08 103.96,-11.84l0 224.56c-67.64,18.37 -132.77,27.35 -195.81,27.35 -228.38,0 -342.36,-123.3 -342.36,-369.49l0 -732.87 -217.94 0 0 -215.57 217.94 0 0 -313.56 297.27 0zm1042.95 1631.49c-188.3,0 -341.11,-57.97 -458.02,-173.93 -116.9,-116.36 -175.77,-270.69 -175.77,-463.8l0 -35.93c0,-129.02 25.47,-244.56 76.82,-346.23 50.94,-101.66 122.33,-180.86 214.6,-237.61 91.86,-56.76 194.56,-84.93 308.13,-84.93 180.36,0 319.4,56.35 417.51,169.03 98.53,112.69 147.38,271.92 147.38,477.69l0 117.58 -864.67 0c9.19,106.57 45.51,190.67 109.39,252.32 64.3,62.06 144.88,93.09 241.74,93.09 136.11,0 247.17,-53.48 332.76,-160.86l160.33 149.43c-53.03,77.57 -124.01,137.59 -212.52,180.05 -88.51,42.87 -187.46,64.1 -297.68,64.1zm-35.49 -1109.71c-81.42,0 -147.39,28.17 -197.49,84.11 -50.1,55.93 -82.25,134.32 -96.03,234.35l566.15 0 0 -21.64c-6.26,-97.58 -32.98,-171.47 -79.33,-221.69 -46.34,-50.22 -111.06,-75.13 -193.3,-75.13zm1339.79 876.99c73.91,0 135.7,-21.23 184.55,-63.28 48.84,-42.06 75.15,-94.31 78.07,-156.37l280.15 0c-2.92,80.84 -28.81,155.96 -76.82,225.77 -48.01,69.82 -113.56,124.94 -195.81,165.77 -82.25,40.42 -171.18,60.83 -266.79,60.83 -184.96,0 -331.93,-58.79 -440.06,-175.97 -108.56,-117.17 -162.83,-279.26 -162.83,-485.85l0 -29.81c0,-196.79 53.86,-354.79 161.57,-473.2 107.72,-118.4 254.27,-177.6 440.06,-177.6 157.41,0 286,44.91 384.95,134.74 98.95,89.41 151.14,207.4 155.73,353.57l-280.15 0c-2.92,-74.72 -28.81,-135.55 -77.66,-183.73 -48.43,-47.77 -110.22,-71.86 -184.96,-71.86 -96.44,0 -170.76,34.3 -222.95,102.48 -52.19,68.18 -78.49,171.48 -79.32,310.3l0 46.54c0,140.45 25.88,244.97 77.65,313.97 51.77,69 126.51,103.7 224.62,103.7zm1060.91 -944.76c96.86,-109.83 219.61,-164.95 368.24,-164.95 281.82,0 425.03,157.6 429.21,472.38l0 845.55 -297.27 0 0 -834.93c0,-89.41 -19.63,-152.7 -59.29,-189.85 -39.66,-37.15 -97.7,-55.53 -174.1,-55.53 -119.41,0 -208.34,51.85 -266.79,155.56l0 924.75 -297.27 0 0 -1837.26 297.27 0 0 684.28z"/>
   </g>
  </g>
 </g>
</svg>
