<?xml version="1.0" encoding="UTF-8"?>
<!DOCTYPE svg PUBLIC "-//W3C//DTD SVG 1.1//EN" "http://www.w3.org/Graphics/SVG/1.1/DTD/svg11.dtd">
<!-- Creator: CorelDRAW 2019 (64-Bit) -->
<svg xmlns="http://www.w3.org/2000/svg" xml:space="preserve" width="5411px" height="4122px" version="1.1" style="shape-rendering:geometricPrecision; text-rendering:geometricPrecision; image-rendering:optimizeQuality; fill-rule:evenodd; clip-rule:evenodd"
viewBox="0 0 5519.44 4205.01"
 xmlns:xlink="http://www.w3.org/1999/xlink"
 xmlns:xodm="http://www.corel.com/coreldraw/odm/2003">
 <defs>
  <style type="text/css">
   <![CDATA[
    .str0 {stroke:#0075BE;stroke-width:53.42;stroke-miterlimit:22.9256}
    .fil2 {fill:#0075BE}
    .fil3 {fill:#191B38}
    .fil1 {fill:#C2C2C2}
    .fil0 {fill:white}
    .fil5 {fill:#C2C2C2;fill-rule:nonzero}
    .fil4 {fill:white;fill-rule:nonzero}
   ]]>
  </style>
 </defs>
 <g id="Слой_x0020_1">
  <metadata id="CorelCorpID_0Corel-Layer"/>
  <g id="_1868581173456">
   <g>
    <path class="fil0 str0" d="M2759.72 26.71c708.09,0 1282.1,574.02 1282.1,1282.1 0,708.08 -574.01,1282.1 -1282.1,1282.1 -708.08,0 -1282.1,-574.02 -1282.1,-1282.1 0,-708.08 574.02,-1282.1 1282.1,-1282.1z"/>
    <path class="fil1" d="M1610.52 1465.26c17.25,55.58 155.25,115 295.17,174.41l1266.9 536.66 -582.66 -389.08c-195.5,-130.33 -389.08,-258.74 -350.75,-390.99 38.33,-130.33 308.58,-264.5 578.83,-398.66 44.08,-21.09 61.33,-72.84 40.25,-115 -21.08,-42.17 -72.83,-59.42 -115,-38.33l-157.17 76.66 -680.4 337.33c-208.92,101.58 -312.42,153.33 -295.17,207z"/>
    <path class="fil2" d="M3245.42 192.61c-55.58,-11.5 -176.33,78.58 -297.08,168.66l-1098.24 827.99 628.66 -308.58c208.92,-103.5 417.83,-207 513.66,-107.33 93.92,97.75 74.75,398.66 55.59,699.58 -3.84,47.91 32.58,88.16 78.58,91.99 47.91,3.84 88.16,-32.58 92,-80.49l11.5 -174.42 49.83 -757.07c15.33,-233.83 23,-348.83 -34.5,-360.33l0 0z"/>
    <path class="fil3" d="M3531 2245.33c38.33,-42.16 21.08,-191.66 1.92,-341.16l-168.67 -1364.65 -44.08 697.66c-15.33,233.83 -30.67,465.74 -164.83,498.33 -132.25,32.58 -383.33,-134.17 -634.41,-302.83 -40.25,-24.92 -92,-15.34 -118.83,24.91 -26.84,38.33 -15.34,92 23,118.83l145.66 97.75 632.49 421.66c193.59,128.42 289.42,193.59 327.75,149.5z"/>
   </g>
   <path class="fil4" d="M588.63 3992.37l13.56 -133.74 137.33 0 0 31.66 -108.43 0 -8.1 73c13.13,-7.73 28.08,-11.56 44.72,-11.56 24.44,0 43.85,8.04 58.18,24.19 14.38,16.14 21.54,37.94 21.54,65.39 0,27.64 -7.47,49.37 -22.36,65.27 -14.89,15.89 -35.75,23.81 -62.51,23.81 -23.68,0 -42.97,-6.6 -57.98,-19.73 -14.95,-13.13 -23.49,-31.28 -25.57,-54.46l32.23 0c2.07,15.32 7.54,26.88 16.4,34.61 8.79,7.79 20.48,11.69 34.92,11.69 15.83,0 28.27,-5.41 37.32,-16.21 8.98,-10.74 13.5,-25.63 13.5,-44.67 0,-17.9 -4.9,-32.22 -14.63,-43.09 -9.74,-10.87 -22.74,-16.27 -38.95,-16.27 -14.83,0 -26.51,3.27 -34.93,9.74l-9.04 7.41 -27.2 -7.04zm204.79 134.25l0 -267.99 75.63 0c23.31,0 43.91,5.15 61.88,15.45 17.9,10.31 31.72,25.01 41.46,43.98 9.8,19.03 14.7,40.89 14.82,65.52l0 17.15c0,25.25 -4.9,47.43 -14.63,66.46 -9.74,18.97 -23.69,33.61 -41.78,43.78 -18.09,10.18 -39.14,15.4 -63.19,15.65l-74.19 0zm35.36 -238.97l0 209.95 37.13 0c27.26,0 48.43,-8.49 63.63,-25.38 15.14,-16.97 22.68,-41.02 22.68,-72.31l0 -15.64c0,-30.47 -7.1,-54.09 -21.42,-70.92 -14.26,-16.9 -34.55,-25.44 -60.81,-25.7l-41.21 0zm422.71 238.97c-1.94,-3.9 -3.52,-10.87 -4.77,-20.92 -15.83,16.46 -34.74,24.69 -56.66,24.69 -19.67,0 -35.75,-5.53 -48.31,-16.65 -12.57,-11.12 -18.85,-25.19 -18.85,-42.22 0,-20.73 7.85,-36.87 23.62,-48.3 15.77,-11.5 37.94,-17.22 66.53,-17.22l33.1 0 0 -15.64c0,-11.87 -3.52,-21.36 -10.61,-28.45 -7.17,-7.04 -17.66,-10.56 -31.48,-10.56 -12.18,0 -22.36,3.08 -30.59,9.17 -8.23,6.16 -12.31,13.57 -12.31,22.24l-34.24 0c0,-9.92 3.52,-19.54 10.55,-28.83 7.1,-9.24 16.65,-16.59 28.78,-21.99 12.06,-5.4 25.31,-8.1 39.82,-8.1 22.93,0 40.9,5.71 53.9,17.21 13.01,11.43 19.79,27.26 20.23,47.37l0 91.65c0,18.28 2.39,32.79 7.04,43.59l0 2.96 -35.75 0zm-56.47 -25.26c10.68,0 20.79,-2.76 30.34,-8.35 9.61,-5.53 16.52,-12.82 20.79,-21.67l0 -41.21 -26.63 0c-41.71,0 -62.57,12.31 -62.57,36.93 0,10.75 3.52,19.17 10.61,25.2 7.17,6.09 16.28,9.1 27.46,9.1zm130.29 -75.88c0,-30.59 7.28,-55.16 21.73,-73.75 14.51,-18.59 33.42,-27.89 56.85,-27.89 23.37,0 41.78,7.98 55.41,23.93l0 -103.84 34.04 0 0 282.69 -31.28 0 -1.63 -21.3c-13.63,16.71 -32.61,25.07 -56.85,25.07 -23.12,0 -41.9,-9.43 -56.41,-28.33 -14.58,-18.91 -21.86,-43.6 -21.86,-74.01l0 -2.57zm34.04 3.83c0,22.55 4.71,40.21 14.01,52.96 9.36,12.75 22.24,19.09 38.63,19.09 21.61,0 37.38,-9.67 47.31,-29.02l0 -91.34c-10.18,-18.78 -25.82,-28.14 -46.93,-28.14 -16.65,0 -29.65,6.41 -39.01,19.29 -9.3,12.87 -14.01,31.91 -14.01,57.16zm178.53 -3.83c0,-30.59 7.29,-55.16 21.74,-73.75 14.51,-18.59 33.42,-27.89 56.85,-27.89 23.37,0 41.78,7.98 55.41,23.93l0 -103.84 34.04 0 0 282.69 -31.28 0 -1.63 -21.3c-13.63,16.71 -32.61,25.07 -56.85,25.07 -23.12,0 -41.9,-9.43 -56.41,-28.33 -14.58,-18.91 -21.87,-43.6 -21.87,-74.01l0 -2.57zm34.05 3.83c0,22.55 4.71,40.21 14.01,52.96 9.36,12.75 22.24,19.09 38.63,19.09 21.61,0 37.38,-9.67 47.31,-29.02l0 -91.34c-10.18,-18.78 -25.82,-28.14 -46.93,-28.14 -16.65,0 -29.65,6.41 -39.01,19.29 -9.3,12.87 -14.01,31.91 -14.01,57.16zm223.89 97.31l-34.05 0 0 -199.01 34.05 0 0 199.01zm-36.81 -251.97c0,-5.53 1.69,-10.24 5.02,-14.07 3.39,-3.83 8.42,-5.72 15.02,-5.72 6.65,0 11.68,1.89 15.07,5.72 3.46,3.83 5.15,8.54 5.15,14.07 0,5.53 -1.69,10.18 -5.15,13.88 -3.39,3.71 -8.42,5.53 -15.07,5.53 -6.6,0 -11.63,-1.82 -15.02,-5.53 -3.33,-3.7 -5.02,-8.35 -5.02,-13.88zm137.51 4.71l0 48.25 37.12 0 0 26.38 -37.12 0 0 123.44c0,7.98 1.63,13.95 4.96,17.97 3.27,3.95 8.92,5.96 16.9,5.96 3.96,0 9.36,-0.75 16.21,-2.2l0 27.58c-8.99,2.39 -17.66,3.65 -26.14,3.65 -15.2,0 -26.69,-4.59 -34.42,-13.82 -7.73,-9.18 -11.56,-22.24 -11.56,-39.14l0 -123.44 -36.31 0 0 -26.38 36.31 0 0 -48.25 34.05 0zm113.89 247.26l-34.05 0 0 -199.01 34.05 0 0 199.01zm-36.81 -251.97c0,-5.53 1.69,-10.24 5.02,-14.07 3.39,-3.83 8.42,-5.72 15.02,-5.72 6.65,0 11.68,1.89 15.07,5.72 3.46,3.83 5.15,8.54 5.15,14.07 0,5.53 -1.69,10.18 -5.15,13.88 -3.39,3.71 -8.42,5.53 -15.07,5.53 -6.6,0 -11.63,-1.82 -15.02,-5.53 -3.33,-3.7 -5.02,-8.35 -5.02,-13.88zm156.85 205.8l49.32 -152.84 34.8 0 -71.43 199.01 -25.94 0 -72.12 -199.01 34.74 0 50.63 152.84zm197.19 49.94c-26.95,0 -48.93,-8.86 -65.89,-26.58 -16.9,-17.77 -25.38,-41.46 -25.38,-71.17l0 -6.28c0,-19.73 3.77,-37.38 11.31,-52.9 7.53,-15.51 18.09,-27.7 31.66,-36.43 13.57,-8.79 28.27,-13.19 44.1,-13.19 25.88,0 45.98,8.54 60.36,25.57 14.33,17.08 21.55,41.52 21.55,73.3l0 14.2 -134.93 0c0.5,19.6 6.22,35.43 17.21,47.49 10.99,12.06 24.94,18.1 41.9,18.1 12,0 22.17,-2.46 30.53,-7.36 8.35,-4.89 15.64,-11.37 21.92,-19.41l20.8 16.21c-16.71,25.63 -41.78,38.45 -75.14,38.45zm-4.2 -178.66c-13.76,0 -25.26,5.02 -34.62,15.08 -9.3,10.05 -15.07,24.12 -17.27,42.21l99.75 0 0 -2.58c-1,-17.4 -5.65,-30.84 -14,-40.39 -8.36,-9.55 -19.67,-14.32 -33.86,-14.32zm246.5 -24.12l0.88 21.98c14.63,-17.15 34.3,-25.75 59.11,-25.75 27.83,0 46.8,10.68 56.85,32.04 6.6,-9.62 15.27,-17.34 25.88,-23.18 10.56,-5.91 23.12,-8.86 37.63,-8.86 43.66,0 65.83,23.11 66.59,69.35l0 133.43 -34.05 0 0 -131.29c0,-14.2 -3.27,-24.88 -9.74,-31.92 -6.53,-7.03 -17.4,-10.55 -32.79,-10.55 -12.62,0 -23.11,3.77 -31.47,11.31 -8.29,7.54 -13.19,17.65 -14.51,30.4l0 132.05 -34.24 0 0 -130.35c0,-28.96 -14.19,-43.41 -42.53,-43.41 -22.3,0 -37.56,9.49 -45.79,28.52l0 145.24 -34.05 0 0 -199.01 32.23 0zm421.33 199.01c-1.95,-3.9 -3.52,-10.87 -4.78,-20.92 -15.83,16.46 -34.74,24.69 -56.66,24.69 -19.66,0 -35.75,-5.53 -48.31,-16.65 -12.56,-11.12 -18.85,-25.19 -18.85,-42.22 0,-20.73 7.86,-36.87 23.63,-48.3 15.76,-11.5 37.94,-17.22 66.52,-17.22l33.11 0 0 -15.64c0,-11.87 -3.52,-21.36 -10.62,-28.45 -7.16,-7.04 -17.65,-10.56 -31.47,-10.56 -12.19,0 -22.37,3.08 -30.6,9.17 -8.23,6.16 -12.31,13.57 -12.31,22.24l-34.24 0c0,-9.92 3.52,-19.54 10.56,-28.83 7.1,-9.24 16.65,-16.59 28.77,-21.99 12.06,-5.4 25.32,-8.1 39.83,-8.1 22.93,0 40.89,5.71 53.9,17.21 13,11.43 19.78,27.26 20.22,47.37l0 91.65c0,18.28 2.39,32.79 7.04,43.59l0 2.96 -35.74 0zm-56.48 -25.26c10.68,0 20.79,-2.76 30.34,-8.35 9.61,-5.53 16.52,-12.82 20.8,-21.67l0 -41.21 -26.64 0c-41.71,0 -62.57,12.31 -62.57,36.93 0,10.75 3.52,19.17 10.62,25.2 7.16,6.09 16.27,9.1 27.45,9.1zm170.87 -173.75l1.07 24.94c15.2,-19.16 35.11,-28.71 59.61,-28.71 42.09,0 63.32,23.74 63.7,71.23l0 131.55 -34.05 0 0 -131.67c-0.12,-14.32 -3.39,-24.94 -9.86,-31.79 -6.41,-6.85 -16.46,-10.3 -30.09,-10.3 -10.99,0 -20.73,2.95 -29.09,8.79 -8.29,5.91 -14.82,13.64 -19.47,23.18l0 141.79 -34.05 0 0 -199.01 32.23 0zm298.58 179.41c-13.19,15.58 -32.67,23.37 -58.3,23.37 -21.23,0 -37.38,-6.16 -48.49,-18.47 -11.12,-12.38 -16.71,-30.6 -16.84,-54.78l0 -129.53 34.05 0 0 128.52c0,30.16 12.25,45.23 36.81,45.23 26.01,0 43.28,-9.67 51.89,-29.02l0 -144.73 34.05 0 0 199.01 -32.42 0 -0.75 -19.6zm101.64 19.6l0 -172.63 -31.47 0 0 -26.38 31.47 0 0 -20.42c0,-21.36 5.72,-37.88 17.15,-49.56 11.37,-11.62 27.51,-17.47 48.37,-17.47 7.85,0 15.64,1.07 23.37,3.14l-1.82 27.52c-5.78,-1.07 -11.94,-1.64 -18.41,-1.64 -11.06,0 -19.6,3.21 -25.57,9.68 -6.03,6.47 -9.04,15.7 -9.04,27.77l0 20.98 42.53 0 0 26.38 -42.53 0 0 172.63 -34.05 0zm237.08 0c-1.95,-3.9 -3.52,-10.87 -4.78,-20.92 -15.83,16.46 -34.73,24.69 -56.66,24.69 -19.66,0 -35.74,-5.53 -48.31,-16.65 -12.56,-11.12 -18.84,-25.19 -18.84,-42.22 0,-20.73 7.85,-36.87 23.62,-48.3 15.77,-11.5 37.94,-17.22 66.52,-17.22l33.11 0 0 -15.64c0,-11.87 -3.52,-21.36 -10.62,-28.45 -7.16,-7.04 -17.65,-10.56 -31.47,-10.56 -12.19,0 -22.36,3.08 -30.59,9.17 -8.23,6.16 -12.31,13.57 -12.31,22.24l-34.24 0c0,-9.92 3.52,-19.54 10.55,-28.83 7.1,-9.24 16.65,-16.59 28.77,-21.99 12.07,-5.4 25.32,-8.1 39.83,-8.1 22.93,0 40.9,5.71 53.9,17.21 13,11.43 19.79,27.26 20.23,47.37l0 91.65c0,18.28 2.38,32.79 7.03,43.59l0 2.96 -35.74 0zm-56.48 -25.26c10.68,0 20.8,-2.76 30.35,-8.35 9.61,-5.53 16.52,-12.82 20.79,-21.67l0 -41.21 -26.64 0c-41.71,0 -62.56,12.31 -62.56,36.93 0,10.75 3.52,19.17 10.61,25.2 7.16,6.09 16.27,9.1 27.45,9.1zm218.37 1.14c12.18,0 22.8,-3.65 31.84,-11 9.11,-7.35 14.14,-16.52 15.08,-27.58l32.23 0c-0.63,11.44 -4.53,22.31 -11.75,32.61 -7.29,10.3 -16.96,18.53 -29.02,24.68 -12.06,6.1 -24.88,9.18 -38.38,9.18 -27.08,0 -48.69,-9.05 -64.71,-27.14 -15.96,-18.09 -24,-42.91 -24,-74.32l0 -5.71c0,-19.35 3.58,-36.63 10.68,-51.7 7.1,-15.08 17.34,-26.83 30.66,-35.18 13.32,-8.36 29.02,-12.5 47.18,-12.5 22.36,0 40.89,6.66 55.72,20.04 14.76,13.38 22.61,30.78 23.62,52.07l-32.23 0c-0.94,-12.87 -5.84,-23.49 -14.64,-31.78 -8.73,-8.29 -19.6,-12.44 -32.47,-12.44 -17.28,0 -30.66,6.22 -40.21,18.66 -9.48,12.5 -14.26,30.46 -14.26,54.08l0 6.41c0,22.93 4.71,40.64 14.2,53.02 9.42,12.38 22.93,18.6 40.46,18.6zm163.83 -223.14l0 48.25 37.12 0 0 26.38 -37.12 0 0 123.44c0,7.98 1.63,13.95 4.96,17.97 3.27,3.95 8.92,5.96 16.9,5.96 3.96,0 9.36,-0.75 16.21,-2.2l0 27.58c-8.99,2.39 -17.66,3.65 -26.14,3.65 -15.2,0 -26.69,-4.59 -34.42,-13.82 -7.73,-9.18 -11.56,-22.24 -11.56,-39.14l0 -123.44 -36.31 0 0 -26.38 36.31 0 0 -48.25 34.05 0zm199.7 227.66c-13.19,15.58 -32.67,23.37 -58.3,23.37 -21.23,0 -37.38,-6.16 -48.49,-18.47 -11.12,-12.38 -16.71,-30.6 -16.84,-54.78l0 -129.53 34.05 0 0 128.52c0,30.16 12.25,45.23 36.81,45.23 26.01,0 43.28,-9.67 51.89,-29.02l0 -144.73 34.05 0 0 199.01 -32.42 0 -0.75 -19.6zm181.11 -149.07c-5.16,-0.88 -10.75,-1.32 -16.71,-1.32 -22.37,0 -37.51,9.49 -45.48,28.52l0 141.47 -34.05 0 0 -199.01 33.1 0 0.57 22.93c11.18,-17.78 27.01,-26.7 47.49,-26.7 6.66,0 11.68,0.88 15.08,2.57l0 31.54zm68.41 168.67l-34.05 0 0 -199.01 34.05 0 0 199.01zm-36.82 -251.97c0,-5.53 1.7,-10.24 5.03,-14.07 3.39,-3.83 8.42,-5.72 15.01,-5.72 6.66,0 11.69,1.89 15.08,5.72 3.45,3.83 5.15,8.54 5.15,14.07 0,5.53 -1.7,10.18 -5.15,13.88 -3.39,3.71 -8.42,5.53 -15.08,5.53 -6.59,0 -11.62,-1.82 -15.01,-5.53 -3.33,-3.7 -5.03,-8.35 -5.03,-13.88zm123.51 52.96l1.06 24.94c15.21,-19.16 35.12,-28.71 59.62,-28.71 42.09,0 63.32,23.74 63.7,71.23l0 131.55 -34.05 0 0 -131.67c-0.13,-14.32 -3.39,-24.94 -9.86,-31.79 -6.41,-6.85 -16.46,-10.3 -30.09,-10.3 -11,0 -20.73,2.95 -29.09,8.79 -8.29,5.91 -14.82,13.64 -19.47,23.18l0 141.79 -34.05 0 0 -199.01 32.23 0zm167.6 97.87c0,-31.1 7.16,-55.78 21.54,-74.13 14.33,-18.34 33.36,-27.51 57.04,-27.51 24.32,0 43.29,8.6 56.86,25.75l1.69 -21.98 31.1 0 0 194.23c0,25.76 -7.67,46.05 -22.93,60.94 -15.27,14.82 -35.81,22.23 -61.57,22.23 -14.32,0 -28.39,-3.07 -42.15,-9.17 -13.69,-6.15 -24.18,-14.51 -31.47,-25.19l17.72 -20.41c14.57,17.9 32.41,26.88 53.52,26.88 16.58,0 29.46,-4.65 38.76,-13.94 9.23,-9.3 13.88,-22.43 13.88,-39.26l0 -17.09c-13.63,15.7 -32.23,23.56 -55.78,23.56 -23.31,0 -42.15,-9.36 -56.6,-28.15 -14.39,-18.78 -21.61,-44.41 -21.61,-76.76zm34.23 3.83c0,22.43 4.59,40.02 13.82,52.83 9.18,12.82 22.05,19.22 38.64,19.22 21.48,0 37.25,-9.73 47.3,-29.21l0 -90.83c-10.43,-18.97 -26.07,-28.46 -46.93,-28.46 -16.58,0 -29.52,6.41 -38.82,19.29 -9.36,12.87 -14.01,31.91 -14.01,57.16z"/>
   <g>
    <path class="fil4" d="M471.58 3272.27c0,-35.24 -12.72,-62.56 -38.16,-81.6 -25.44,-19.22 -71.3,-38.44 -137.41,-58.04 -66.29,-19.41 -119.09,-41.28 -158.22,-65.21 -74.77,-45.98 -112.35,-106.1 -112.35,-180.16 0,-64.83 26.98,-118.17 81.13,-160.19 53.96,-42.03 124.11,-62.95 210.26,-62.95 57.24,0 108.11,10.37 153.02,30.91 44.71,20.73 79.97,49.94 105.61,88.2 25.43,38.07 38.35,80.28 38.35,126.83l-142.23 0c0,-42.03 -13.49,-74.82 -40.47,-98.37 -26.79,-23.75 -65.33,-35.62 -115.44,-35.62 -46.64,0 -82.87,9.8 -108.69,29.21 -25.82,19.41 -38.74,46.55 -38.74,81.6 0,29.4 14.07,53.9 41.82,73.5 27.95,19.6 73.81,38.63 137.8,57.29 63.98,18.47 115.43,39.76 154.17,63.51 38.74,23.74 67.07,51.07 85.18,81.79 18.12,30.9 27.17,66.9 27.17,108.17 0,67.09 -26.2,120.43 -78.82,160.19 -52.42,39.58 -123.72,59.36 -213.72,59.36 -59.36,0 -114.09,-10.74 -164,-32.41 -49.92,-21.48 -88.65,-51.26 -116.21,-89.14 -27.75,-37.88 -41.63,-82.17 -41.63,-132.67l143 0c0,45.6 15.41,80.84 46.25,105.91 30.83,25.06 74.97,37.5 132.59,37.5 49.72,0 87.11,-9.8 112.16,-29.59 25.05,-19.6 37.58,-45.6 37.58,-78.02zm426.87 -534.65l0 144.74 107.73 0 0 99.5 -107.73 0 0 333.38c0,22.8 4.63,39.39 13.88,49.38 9.05,10.17 25.63,15.26 49.33,15.26 15.8,0 31.8,-1.88 47.99,-5.46l0 103.65c-31.22,8.48 -61.29,12.62 -90.39,12.62 -105.41,0 -158.02,-56.91 -158.02,-170.55l0 -338.28 -100.6 0 0 -99.5 100.6 0 0 -144.74 137.21 0zm481.41 753.07c-86.92,0 -157.45,-26.76 -211.41,-80.28 -53.96,-53.71 -81.14,-124.94 -81.14,-214.08l0 -16.59c0,-59.55 11.76,-112.88 35.46,-159.81 23.51,-46.93 56.47,-83.49 99.06,-109.68 42.4,-26.2 89.81,-39.2 142.23,-39.2 83.25,0 147.43,26.01 192.72,78.02 45.48,52.01 68.02,125.51 68.02,220.49l0 54.28 -399.12 0c4.24,49.19 21.01,88.01 50.5,116.47 29.68,28.64 66.87,42.96 111.58,42.96 62.83,0 114.09,-24.68 153.6,-74.25l74 68.98c-24.48,35.8 -57.24,63.51 -98.09,83.11 -40.86,19.78 -86.53,29.58 -137.41,29.58zm-16.38 -512.22c-37.58,0 -68.03,13 -91.16,38.82 -23.12,25.82 -37.96,62 -44.32,108.18l261.32 0 0 -9.99c-2.89,-45.04 -15.22,-79.15 -36.61,-102.34 -21.4,-23.17 -51.27,-34.67 -89.23,-34.67zm687.81 25.82c-18.12,-2.83 -36.81,-4.34 -55.89,-4.34 -62.83,0 -105.22,23.56 -127,70.68l0 408.76 -137.22 0 0 -597.03 130.86 0 3.47 66.52c33.15,-51.82 79.01,-77.83 137.79,-77.83 19.47,0 35.65,2.64 48.57,7.73l-0.58 125.51zm344.96 486.4c-86.91,0 -157.45,-26.76 -211.41,-80.28 -53.96,-53.71 -81.13,-124.94 -81.13,-214.08l0 -16.59c0,-59.55 11.75,-112.88 35.46,-159.81 23.51,-46.93 56.47,-83.49 99.06,-109.68 42.39,-26.2 89.8,-39.2 142.22,-39.2 83.26,0 147.43,26.01 192.72,78.02 45.48,52.01 68.03,125.51 68.03,220.49l0 54.28 -399.12 0c4.24,49.19 21.01,88.01 50.49,116.47 29.68,28.64 66.87,42.96 111.59,42.96 62.82,0 114.08,-24.68 153.59,-74.25l74 68.98c-24.47,35.8 -57.23,63.51 -98.09,83.11 -40.85,19.78 -86.53,29.58 -137.41,29.58zm-16.38 -512.22c-37.58,0 -68.03,13 -91.15,38.82 -23.13,25.82 -37.97,62 -44.33,108.18l261.33 0 0 -9.99c-2.89,-45.04 -15.23,-79.15 -36.62,-102.34 -21.39,-23.17 -51.26,-34.67 -89.23,-34.67zm341.69 196.94c0,-58.61 11.95,-111.38 35.66,-158.31 23.7,-46.92 57.04,-82.92 100.01,-108.17 42.79,-25.25 92.12,-37.88 147.82,-37.88 82.48,0 149.36,26.01 200.81,77.83 51.27,52.02 79.02,120.8 83.26,206.55l0.57 31.47c0,58.99 -11.56,111.57 -34.69,157.93 -23.31,46.36 -56.27,82.35 -99.44,107.8 -43.17,25.44 -92.89,38.06 -149.35,38.06 -86.15,0 -155.14,-28.08 -206.98,-84.24 -51.65,-56.16 -77.67,-130.97 -77.67,-224.45l0 -6.59zm137.22 11.3c0,61.44 13.1,109.5 39.12,144.36 25.82,34.87 62.05,52.2 108.31,52.2 46.25,0 82.29,-17.71 108.11,-52.95 25.83,-35.43 38.74,-87.07 38.74,-155.29 0,-60.31 -13.3,-108.17 -39.9,-143.6 -26.4,-35.25 -62.44,-52.96 -108.11,-52.96 -44.71,0 -80.36,17.34 -106.57,52.2 -26.4,34.87 -39.7,86.69 -39.7,156.04z"/>
    <path class="fil5" d="M3578.19 2737.62l0 144.74 107.73 0 0 99.5 -107.73 0 0 333.38c0,22.8 4.63,39.39 13.88,49.38 9.06,10.17 25.63,15.26 49.33,15.26 15.81,0 31.8,-1.88 47.99,-5.46l0 103.65c-31.22,8.48 -61.28,12.62 -90.38,12.62 -105.42,0 -158.03,-56.91 -158.03,-170.55l0 -338.28 -100.6 0 0 -99.5 100.6 0 0 -144.74 137.21 0zm481.41 753.07c-86.91,0 -157.45,-26.76 -211.41,-80.28 -53.96,-53.71 -81.13,-124.94 -81.13,-214.08l0 -16.59c0,-59.55 11.75,-112.88 35.46,-159.81 23.51,-46.93 56.46,-83.49 99.05,-109.68 42.4,-26.2 89.81,-39.2 142.23,-39.2 83.25,0 147.43,26.01 192.72,78.02 45.48,52.01 68.03,125.51 68.03,220.49l0 54.28 -399.12 0c4.24,49.19 21,88.01 50.49,116.47 29.68,28.64 66.87,42.96 111.58,42.96 62.83,0 114.09,-24.68 153.6,-74.25l74 68.98c-24.47,35.8 -57.24,63.51 -98.09,83.11 -40.86,19.78 -86.53,29.58 -137.41,29.58zm-16.38 -512.22c-37.58,0 -68.03,13 -91.16,38.82 -23.12,25.82 -37.96,62 -44.32,108.18l261.32 0 0 -9.99c-2.89,-45.04 -15.22,-79.15 -36.61,-102.34 -21.39,-23.17 -51.26,-34.67 -89.23,-34.67zm618.43 404.8c34.11,0 62.64,-9.8 85.18,-29.21 22.55,-19.41 34.69,-43.53 36.04,-72.18l129.32 0c-1.35,37.32 -13.3,71.99 -35.47,104.22 -22.16,32.23 -52.41,57.67 -90.38,76.51 -37.97,18.66 -79.01,28.08 -123.15,28.08 -85.37,0 -153.21,-27.13 -203.12,-81.22 -50.11,-54.09 -75.16,-128.9 -75.16,-224.26l0 -13.76c0,-90.84 24.86,-163.77 74.58,-218.42 49.72,-54.66 117.37,-81.98 203.13,-81.98 72.65,0 132.01,20.73 177.68,62.19 45.68,41.27 69.76,95.74 71.89,163.2l-129.32 0c-1.35,-34.48 -13.3,-62.56 -35.84,-84.8 -22.36,-22.05 -50.88,-33.17 -85.38,-33.17 -44.52,0 -78.82,15.83 -102.91,47.3 -24.09,31.47 -36.23,79.15 -36.62,143.23l0 21.48c0,64.83 11.95,113.08 35.85,144.93 23.9,31.85 58.39,47.86 103.68,47.86zm489.7 -436.08c44.71,-50.7 101.37,-76.14 169.97,-76.14 130.09,0 196.19,72.74 198.12,218.04l0 390.3 -137.22 0 0 -385.4c0,-41.27 -9.05,-70.48 -27.36,-87.63 -18.31,-17.15 -45.1,-25.63 -80.37,-25.63 -55.11,0 -96.16,23.94 -123.14,71.8l0 426.86 -137.22 0 0 -848.06 137.22 0 0 315.86z"/>
   </g>
   <polygon class="fil1" points="462.62,3707.4 5056.81,3707.4 5056.81,3653.98 462.62,3653.98 "/>
  </g>
 </g>
</svg>
