<?xml version="1.0" encoding="UTF-8"?>
<!DOCTYPE svg PUBLIC "-//W3C//DTD SVG 1.1//EN" "http://www.w3.org/Graphics/SVG/1.1/DTD/svg11.dtd">
<!-- Creator: CorelDRAW 2019 (64-Bit) -->
<svg xmlns="http://www.w3.org/2000/svg" xml:space="preserve" width="4096px" height="4096px" version="1.1" style="shape-rendering:geometricPrecision; text-rendering:geometricPrecision; image-rendering:optimizeQuality; fill-rule:evenodd; clip-rule:evenodd"
viewBox="0 0 4222.24 4222.24"
 xmlns:xlink="http://www.w3.org/1999/xlink"
 xmlns:xodm="http://www.corel.com/coreldraw/odm/2003">
 <defs>
  <style type="text/css">
   <![CDATA[
    .fil3 {fill:none}
    .fil5 {fill:#0075BE}
    .fil2 {fill:#191B38}
    .fil4 {fill:#C2C2C2}
    .fil0 {fill:white}
    .fil1 {fill:#0075BE;fill-rule:nonzero}
   ]]>
  </style>
 </defs>
 <g id="Слой_x0020_1">
  <metadata id="CorelCorpID_0Corel-Layer"/>
  <g id="_1684382756896">
   <g id="_2344290151424">
    <g>
     <path class="fil0" d="M2111.1 43.09c1142.14,0 2068.03,925.88 2068.03,2068.03 0,1142.13 -925.89,2068.02 -2068.03,2068.02 -1142.14,0 -2068.02,-925.89 -2068.02,-2068.02 0,-1142.15 925.88,-2068.03 2068.02,-2068.03z"/>
     <path id="_1" class="fil1" d="M4222.22 2111.12l-86.17 0 0 0 -2.63 -104.26 -7.83 -102.85 -12.88 -101.33 -17.8 -99.71 -22.61 -97.96 -27.29 -96.07 -31.82 -94.07 -36.25 -91.95 -40.55 -89.68 -44.72 -87.31 -48.75 -84.79 -52.68 -82.16 -56.46 -79.39 -60.12 -76.5 -63.65 -73.49 -67.06 -70.33 -70.33 -67.06 -73.49 -63.65 -76.5 -60.12 -79.39 -56.46 -82.16 -52.68 -84.8 -48.75 -87.3 -44.72 -89.68 -40.54 -91.95 -36.25 -94.07 -31.83 -96.08 -27.28 -97.95 -22.61 -99.71 -17.8 -101.35 -12.88 -102.85 -7.83 -104.25 -2.63 0 -86.17 108.6 2.74 107.19 8.15 105.65 13.43 103.97 18.56 102.16 23.58 100.2 28.45 98.11 33.2 95.88 37.81 93.53 42.28 91.03 46.62 88.41 50.83 85.66 54.92 82.77 58.85 79.74 62.67 76.6 66.34 73.3 69.89 69.89 73.31 66.35 76.59 62.67 79.74 58.85 82.77 54.91 85.66 50.83 88.41 46.63 91.04 42.28 93.52 37.81 95.89 33.19 98.1 28.45 100.2 23.58 102.15 18.57 103.97 13.42 105.64 8.15 107.21 2.75 108.59 0 0 0 0zm-2111.11 2111.1l0 -86.17 0 0 104.25 -2.63 102.85 -7.83 101.35 -12.88 99.71 -17.8 97.95 -22.61 96.08 -27.29 94.07 -31.82 91.95 -36.25 89.68 -40.55 87.31 -44.72 84.79 -48.75 82.16 -52.68 79.39 -56.46 76.5 -60.12 73.49 -63.65 70.33 -67.06 67.06 -70.33 63.65 -73.49 60.12 -76.5 56.46 -79.39 52.68 -82.16 48.75 -84.8 44.72 -87.3 40.55 -89.68 36.25 -91.95 31.83 -94.07 27.28 -96.08 22.61 -97.95 17.8 -99.71 12.88 -101.35 7.83 -102.85 2.63 -104.25 86.17 0 -2.74 108.6 -8.15 107.19 -13.43 105.66 -18.56 103.96 -23.59 102.16 -28.44 100.2 -33.2 98.11 -37.81 95.88 -42.28 93.53 -46.62 91.03 -50.83 88.41 -54.92 85.66 -58.85 82.77 -62.67 79.74 -66.34 76.6 -69.89 73.3 -73.31 69.89 -76.6 66.35 -79.74 62.67 -82.77 58.85 -85.65 54.91 -88.42 50.83 -91.03 46.63 -93.52 42.28 -95.89 37.81 -98.11 33.19 -100.2 28.45 -102.15 23.58 -103.97 18.57 -105.66 13.42 -107.19 8.15 -108.59 2.75 0 0 -0.01 0zm-2111.1 -2111.1l86.17 0 0 0 2.63 104.25 7.83 102.85 12.88 101.35 17.8 99.7 22.61 97.96 27.28 96.07 31.83 94.08 36.25 91.94 40.54 89.68 44.72 87.31 48.75 84.79 52.68 82.16 56.46 79.39 60.12 76.51 63.65 73.48 67.06 70.33 70.33 67.06 73.48 63.65 76.51 60.12 79.39 56.46 82.16 52.68 84.79 48.75 87.31 44.72 89.68 40.55 91.95 36.25 94.07 31.83 96.07 27.28 97.96 22.61 99.71 17.81 101.33 12.88 102.85 7.82 104.26 2.63 0 86.17 -108.6 -2.74 -107.2 -8.15 -105.65 -13.43 -103.97 -18.56 -102.15 -23.58 -100.2 -28.45 -98.1 -33.2 -95.89 -37.8 -93.52 -42.28 -91.03 -46.63 -88.42 -50.83 -85.65 -54.92 -82.77 -58.85 -79.74 -62.66 -76.6 -66.35 -73.31 -69.89 -69.89 -73.31 -66.34 -76.59 -62.67 -79.74 -58.85 -82.77 -54.92 -85.66 -50.83 -88.41 -46.62 -91.04 -42.28 -93.52 -37.81 -95.89 -33.2 -98.11 -28.44 -100.2 -23.59 -102.15 -18.56 -103.97 -13.42 -105.65 -8.16 -107.2 -2.74 -108.59 0 0 0.01 0zm2111.1 -2111.11l0 86.17 0 0 -104.25 2.63 -102.85 7.83 -101.34 12.88 -99.7 17.8 -97.96 22.61 -96.07 27.28 -94.08 31.83 -91.94 36.25 -89.69 40.54 -87.3 44.72 -84.8 48.75 -82.15 52.68 -79.39 56.46 -76.51 60.12 -73.48 63.65 -70.33 67.06 -67.06 70.33 -63.66 73.49 -60.11 76.5 -56.47 79.39 -52.67 82.16 -48.76 84.79 -44.71 87.31 -40.55 89.68 -36.24 91.95 -31.83 94.07 -27.28 96.07 -22.61 97.96 -17.81 99.71 -12.88 101.33 -7.82 102.85 -2.63 104.26 -86.18 0 2.75 -108.6 8.15 -107.2 13.42 -105.65 18.57 -103.97 23.58 -102.15 28.45 -100.2 33.19 -98.1 37.81 -95.89 42.28 -93.52 46.63 -91.03 50.83 -88.42 54.91 -85.65 58.85 -82.77 62.67 -79.74 66.35 -76.6 69.89 -73.31 73.3 -69.89 76.6 -66.34 79.74 -62.67 82.77 -58.85 85.66 -54.92 88.41 -50.83 91.03 -46.62 93.53 -42.28 95.88 -37.81 98.11 -33.2 100.19 -28.44 102.16 -23.59 103.96 -18.56 105.65 -13.42 107.2 -8.16 108.6 -2.74 0 0 -0.01 0.01z"/>
    </g>
    <g id="_2344290152800">
     <g>
      <polygon class="fil2" points="2827.5,456.69 3006.6,560.09 3185.68,663.5 3185.68,870.3 3185.68,1077.11 3006.6,1180.51 2827.5,1283.9 2648.4,1180.51 2469.3,1077.11 2469.3,870.3 2469.3,663.5 2648.4,560.09 "/>
      <line class="fil3" x1="3185.68" y1="663.5" x2="2827.5" y2= "870.3" />
      <line class="fil3" x1="2469.3" y1="663.5" x2="2827.5" y2= "870.3" />
      <line class="fil3" x1="2827.5" y1="1283.9" x2="2827.5" y2= "870.3" />
     </g>
     <g>
      <polygon class="fil4" points="2827.5,1283.9 3006.6,1387.31 3185.68,1490.71 3185.68,1697.51 3185.68,1904.32 3006.6,2007.72 2827.5,2111.12 2648.4,2007.72 2469.3,1904.32 2469.3,1697.51 2469.3,1490.71 2648.4,1387.31 "/>
      <line class="fil3" x1="3185.68" y1="1490.71" x2="2827.5" y2= "1697.51" />
      <line class="fil3" x1="2469.3" y1="1490.71" x2="2827.5" y2= "1697.51" />
      <line class="fil3" x1="2827.5" y1="2111.12" x2="2827.5" y2= "1697.51" />
     </g>
     <g>
      <polygon class="fil5" points="2827.5,2111.12 3006.6,2214.52 3185.68,2317.92 3185.68,2524.72 3185.68,2731.53 3006.6,2834.93 2827.5,2938.32 2648.4,2834.93 2469.3,2731.53 2469.3,2524.72 2469.3,2317.92 2648.4,2214.52 "/>
      <line class="fil3" x1="3185.68" y1="2317.92" x2="2827.5" y2= "2524.72" />
      <line class="fil3" x1="2469.3" y1="2317.92" x2="2827.5" y2= "2524.72" />
      <line class="fil3" x1="2827.5" y1="2938.32" x2="2827.5" y2= "2524.72" />
     </g>
     <g>
      <polygon class="fil4" points="2111.1,870.3 2290.2,973.7 2469.3,1077.11 2469.3,1283.9 2469.3,1490.71 2290.2,1594.12 2111.1,1697.51 1932,1594.12 1752.92,1490.71 1752.92,1283.9 1752.92,1077.11 1932,973.7 "/>
      <line class="fil3" x1="2469.3" y1="1077.11" x2="2111.1" y2= "1283.9" />
      <line class="fil3" x1="1752.92" y1="1077.11" x2="2111.1" y2= "1283.9" />
      <line class="fil3" x1="2111.1" y1="1697.51" x2="2111.1" y2= "1283.9" />
     </g>
     <g>
      <polygon class="fil5" points="2111.1,1697.51 2290.2,1800.91 2469.3,1904.32 2469.3,2111.12 2469.3,2317.92 2290.2,2421.33 2111.1,2524.72 1932,2421.33 1752.92,2317.92 1752.92,2111.12 1752.92,1904.32 1932,1800.91 "/>
      <line class="fil3" x1="2469.3" y1="1904.32" x2="2111.1" y2= "2111.12" />
      <line class="fil3" x1="1752.92" y1="1904.32" x2="2111.1" y2= "2111.12" />
      <line class="fil3" x1="2111.1" y1="2524.72" x2="2111.1" y2= "2111.12" />
     </g>
     <g>
      <polygon class="fil2" points="2111.1,2524.72 2290.2,2628.12 2469.3,2731.53 2469.3,2938.32 2469.3,3145.13 2290.2,3248.54 2111.1,3351.93 1932,3248.54 1752.92,3145.13 1752.92,2938.32 1752.92,2731.53 1932,2628.12 "/>
      <line class="fil3" x1="2469.3" y1="2731.53" x2="2111.1" y2= "2938.32" />
      <line class="fil3" x1="1752.92" y1="2731.53" x2="2111.1" y2= "2938.32" />
      <line class="fil3" x1="2111.1" y1="3351.93" x2="2111.1" y2= "2938.32" />
     </g>
     <g>
      <polygon class="fil5" points="1394.72,1283.9 1573.82,1387.31 1752.92,1490.71 1752.92,1697.51 1752.92,1904.32 1573.82,2007.71 1394.72,2111.12 1215.62,2007.71 1036.52,1904.32 1036.52,1697.51 1036.52,1490.71 1215.62,1387.31 "/>
      <line class="fil3" x1="1752.92" y1="1490.71" x2="1394.72" y2= "1697.51" />
      <line class="fil3" x1="1036.52" y1="1490.71" x2="1394.72" y2= "1697.51" />
      <line class="fil3" x1="1394.72" y1="2111.12" x2="1394.72" y2= "1697.51" />
     </g>
     <g>
      <polygon class="fil2" points="1394.72,2111.12 1573.82,2214.52 1752.92,2317.92 1752.92,2524.72 1752.92,2731.53 1573.82,2834.92 1394.72,2938.32 1215.62,2834.92 1036.52,2731.53 1036.52,2524.72 1036.52,2317.92 1215.62,2214.52 "/>
      <line class="fil3" x1="1752.92" y1="2317.92" x2="1394.72" y2= "2524.72" />
      <line class="fil3" x1="1036.52" y1="2317.92" x2="1394.72" y2= "2524.72" />
      <line class="fil3" x1="1394.72" y1="2938.32" x2="1394.72" y2= "2524.72" />
     </g>
     <g>
      <polygon class="fil4" points="1394.72,2938.32 1573.82,3041.73 1752.92,3145.13 1752.92,3351.93 1752.92,3558.74 1573.82,3662.14 1394.72,3765.53 1215.62,3662.14 1036.52,3558.74 1036.52,3351.93 1036.52,3145.13 1215.62,3041.73 "/>
      <line class="fil3" x1="1752.92" y1="3145.13" x2="1394.72" y2= "3351.93" />
      <line class="fil3" x1="1036.52" y1="3145.13" x2="1394.72" y2= "3351.93" />
      <line class="fil3" x1="1394.72" y1="3765.53" x2="1394.72" y2= "3351.93" />
     </g>
    </g>
   </g>
  </g>
 </g>
</svg>
