<?xml version="1.0" encoding="UTF-8"?>
<!DOCTYPE svg PUBLIC "-//W3C//DTD SVG 1.1//EN" "http://www.w3.org/Graphics/SVG/1.1/DTD/svg11.dtd">
<!-- Creator: CorelDRAW 2019 (64-Bit) -->
<svg xmlns="http://www.w3.org/2000/svg" xml:space="preserve" width="26307px" height="4096px" version="1.1" style="shape-rendering:geometricPrecision; text-rendering:geometricPrecision; image-rendering:optimizeQuality; fill-rule:evenodd; clip-rule:evenodd"
viewBox="0 0 27501.28 4281.88"
 xmlns:xlink="http://www.w3.org/1999/xlink"
 xmlns:xodm="http://www.corel.com/coreldraw/odm/2003">
 <defs>
  <style type="text/css">
   <![CDATA[
    .fil1 {fill:#0075BE;fill-rule:nonzero}
    .fil0 {fill:#191B38;fill-rule:nonzero}
   ]]>
  </style>
 </defs>
 <g id="Слой_x0020_1">
  <metadata id="CorelCorpID_0Corel-Layer"/>
  <g id="_1868573453024">
   <path class="fil0" d="M2349.71 3193.57c0,-175.6 -63.38,-311.75 -190.13,-406.59 -126.75,-95.78 -355.29,-191.56 -684.65,-289.22 -330.32,-96.72 -593.43,-205.64 -788.36,-324.89 -372.57,-229.12 -559.82,-528.67 -559.82,-897.7 0,-323.02 134.43,-588.76 404.26,-798.15 268.87,-209.4 618.4,-313.63 1047.62,-313.63 285.2,0 538.7,51.64 762.44,153.99 222.77,103.3 398.5,248.84 526.21,439.46 126.75,189.68 191.08,400.02 191.08,631.95l-708.65 0c0,-209.4 -67.22,-372.78 -201.65,-490.16 -133.48,-118.31 -325.52,-177.47 -575.19,-177.47 -232.37,0 -412.9,48.83 -541.57,145.54 -128.67,96.72 -193.01,231.94 -193.01,406.6 0,146.48 70.1,268.55 208.37,366.21 139.24,97.66 367.77,192.5 686.57,285.46 318.8,92.02 575.19,198.13 768.2,316.44 193,118.32 334.16,254.47 424.42,407.53 90.26,154 135.4,333.35 135.4,538.99 0,334.29 -130.6,600.03 -392.74,798.16 -261.19,197.19 -616.48,295.79 -1064.91,295.79 -295.75,0 -568.46,-53.52 -817.16,-161.51 -248.71,-107.05 -441.71,-255.41 -579.03,-444.15 -138.27,-188.74 -207.41,-409.41 -207.41,-661.06l712.5 0c0,227.24 76.82,402.83 230.46,527.72 153.63,124.89 373.53,186.86 660.64,186.86 247.74,0 434.03,-48.83 558.86,-147.42 124.83,-97.66 187.25,-227.24 187.25,-388.75zm2126.93 -2663.97l0 721.16 536.77 0 0 495.8 -536.77 0 0 1661.1c0,113.62 23.05,196.25 69.14,246.02 45.13,50.71 127.71,76.06 245.82,76.06 78.74,0 158.44,-9.39 239.1,-27.23l0 516.46c-155.56,42.25 -305.36,62.91 -450.35,62.91 -525.26,0 -787.4,-283.58 -787.4,-849.8l0 -1685.52 -501.25 0 0 -495.8 501.25 0 0 -721.16 683.69 0zm2398.68 3752.28c-433.07,0 -784.52,-133.34 -1053.38,-400.02 -268.87,-267.62 -404.26,-622.56 -404.26,-1066.71l0 -82.64c0,-296.72 58.57,-562.46 176.68,-796.28 117.15,-233.81 281.35,-415.98 493.56,-546.5 211.25,-130.52 447.47,-195.31 708.66,-195.31 414.82,0 734.58,129.58 960.24,388.75 226.62,259.16 338.96,625.38 338.96,1098.64l0 270.43 -1988.65 0c21.12,245.08 104.67,438.52 251.58,580.31 147.88,142.73 333.2,214.09 555.98,214.09 313.04,0 568.46,-123.01 765.31,-369.97l368.73 343.68c-121.95,178.41 -285.19,316.45 -488.76,414.1 -203.57,98.6 -431.15,147.43 -684.65,147.43zm-81.62 -2552.23c-187.25,0 -338.97,64.8 -454.19,193.44 -115.23,128.64 -189.17,308.93 -220.86,538.99l1302.09 0 0 -49.77c-14.41,-224.42 -75.86,-394.38 -182.45,-509.88 -106.59,-115.5 -255.42,-172.78 -444.59,-172.78zm3427.1 128.65c-90.27,-14.09 -183.41,-21.6 -278.47,-21.6 -313.04,0 -524.29,117.38 -632.8,352.13l0 2036.71 -683.69 0 0 -2974.78 652 0 17.29 331.47c165.16,-258.23 393.69,-387.81 686.57,-387.81 96.98,0 177.64,13.14 241.98,38.5l-2.88 625.38zm1718.83 2423.58c-433.07,0 -784.52,-133.34 -1053.39,-400.02 -268.86,-267.62 -404.26,-622.56 -404.26,-1066.71l0 -82.64c0,-296.72 58.58,-562.46 176.69,-796.28 117.15,-233.81 281.35,-415.98 493.56,-546.5 211.25,-130.52 447.47,-195.31 708.66,-195.31 414.82,0 734.58,129.58 960.24,388.75 226.62,259.16 338.96,625.38 338.96,1098.64l0 270.43 -1988.66 0c21.13,245.08 104.67,438.52 251.59,580.31 147.88,142.73 333.2,214.09 555.98,214.09 313.04,0 568.46,-123.01 765.31,-369.97l368.73 343.68c-121.95,178.41 -285.19,316.45 -488.76,414.1 -203.57,98.6 -431.15,147.43 -684.65,147.43zm-81.62 -2552.23c-187.25,0 -338.97,64.8 -454.2,193.44 -115.23,128.64 -189.16,308.93 -220.85,538.99l1302.08 0 0 -49.77c-14.4,-224.42 -75.86,-394.38 -182.44,-509.88 -106.59,-115.5 -255.43,-172.78 -444.59,-172.78zm1702.5 981.27c0,-292.03 59.54,-554.96 177.65,-788.77 118.11,-233.81 284.23,-413.16 498.36,-538.99 213.17,-125.83 459,-188.74 736.51,-188.74 410.98,0 744.18,129.58 1000.57,387.81 255.42,259.17 393.7,601.9 414.82,1029.15l2.88 156.82c0,293.91 -57.61,555.89 -172.84,786.89 -116.19,230.99 -280.39,410.34 -495.49,537.11 -215.09,126.77 -462.83,189.68 -744.18,189.68 -429.23,0 -772.99,-139.91 -1031.3,-419.74 -257.34,-279.82 -386.98,-652.61 -386.98,-1118.36l0 -32.86zm683.69 56.34c0,306.11 65.3,545.56 194.93,719.28 128.67,173.72 309.2,260.1 539.66,260.1 230.46,0 410.02,-88.26 538.69,-263.86 128.67,-176.53 193.01,-433.82 193.01,-773.74 0,-300.48 -66.26,-538.99 -198.77,-715.52 -131.55,-175.6 -311.12,-263.87 -538.69,-263.87 -222.78,0 -400.42,86.39 -531.02,260.11 -131.55,173.72 -197.81,431.94 -197.81,777.5z"/>
   <path class="fil1" d="M17828.78 529.6l0 721.16 536.77 0 0 495.8 -536.77 0 0 1661.1c0,113.62 23.05,196.25 69.14,246.02 45.13,50.71 127.71,76.06 245.82,76.06 78.74,0 158.44,-9.39 239.1,-27.23l0 516.46c-155.56,42.25 -305.36,62.91 -450.35,62.91 -525.26,0 -787.4,-283.58 -787.4,-849.8l0 -1685.52 -501.25 0 0 -495.8 501.25 0 0 -721.16 683.69 0zm2398.68 3752.28c-433.07,0 -784.52,-133.34 -1053.38,-400.02 -268.87,-267.62 -404.26,-622.56 -404.26,-1066.71l0 -82.64c0,-296.72 58.57,-562.46 176.68,-796.28 117.15,-233.81 281.35,-415.98 493.56,-546.5 211.25,-130.52 447.47,-195.31 708.66,-195.31 414.82,0 734.58,129.58 960.24,388.75 226.62,259.16 338.96,625.38 338.96,1098.64l0 270.43 -1988.65 0c21.12,245.08 104.67,438.52 251.58,580.31 147.88,142.73 333.2,214.09 555.98,214.09 313.04,0 568.46,-123.01 765.31,-369.97l368.73 343.68c-121.95,178.41 -285.19,316.45 -488.76,414.1 -203.57,98.6 -431.15,147.43 -684.65,147.43zm-81.62 -2552.23c-187.25,0 -338.97,64.8 -454.19,193.44 -115.23,128.64 -189.17,308.93 -220.86,538.99l1302.09 0 0 -49.77c-14.41,-224.42 -75.86,-394.38 -182.45,-509.88 -106.59,-115.5 -255.42,-172.78 -444.59,-172.78zm3081.41 2016.99c169.96,0 312.08,-48.82 424.43,-145.54 112.34,-96.72 172.84,-216.91 179.56,-359.64l644.32 0c-6.72,185.92 -66.25,358.7 -176.68,519.27 -110.43,160.57 -261.19,287.34 -450.35,381.24 -189.17,92.96 -393.7,139.91 -613.6,139.91 -425.38,0 -763.39,-135.22 -1012.09,-404.71 -249.66,-269.5 -374.5,-642.29 -374.5,-1117.42l0 -68.55c0,-452.6 123.88,-816 371.62,-1088.31 247.74,-272.32 584.78,-408.47 1012.09,-408.47 362.01,0 657.77,103.29 885.34,309.87 227.58,205.64 347.61,477.02 358.17,813.18l-644.32 0c-6.72,-171.84 -66.26,-311.75 -178.6,-422.55 -111.39,-109.86 -253.51,-165.27 -425.39,-165.27 -221.82,0 -392.74,78.88 -512.77,235.69 -120.03,156.82 -180.52,394.39 -182.44,713.65l0 107.05c0,323.02 59.53,563.4 178.6,722.1 119.07,158.69 290.95,238.5 516.61,238.5zm2439.97 -2172.86c222.78,-252.6 505.09,-379.36 846.93,-379.36 648.17,0 977.53,362.46 987.13,1086.43l0 1944.69 -683.69 0 0 -1920.27c0,-205.65 -45.13,-351.19 -136.35,-436.64 -91.23,-85.45 -224.7,-127.71 -400.43,-127.71 -274.62,0 -479.15,119.26 -613.59,357.76l0 2126.86 -683.69 0 0 -4225.54 683.69 0 0 1573.78z"/>
  </g>
 </g>
</svg>
