<?xml version="1.0" encoding="UTF-8"?>
<!DOCTYPE svg PUBLIC "-//W3C//DTD SVG 1.1//EN" "http://www.w3.org/Graphics/SVG/1.1/DTD/svg11.dtd">
<!-- Creator: CorelDRAW 2019 (64-Bit) -->
<svg xmlns="http://www.w3.org/2000/svg" xml:space="preserve" width="4096px" height="4096px" version="1.1" style="shape-rendering:geometricPrecision; text-rendering:geometricPrecision; image-rendering:optimizeQuality; fill-rule:evenodd; clip-rule:evenodd"
viewBox="0 0 3889.4 3889.39"
 xmlns:xlink="http://www.w3.org/1999/xlink"
 xmlns:xodm="http://www.corel.com/coreldraw/odm/2003">
 <defs>
  <style type="text/css">
   <![CDATA[
    .fil3 {fill:#0075BE}
    .fil4 {fill:#191B38}
    .fil2 {fill:#C2C2C2}
    .fil0 {fill:white}
    .fil1 {fill:#0075BE;fill-rule:nonzero}
   ]]>
  </style>
 </defs>
 <g id="Слой_x0020_1">
  <metadata id="CorelCorpID_0Corel-Layer"/>
  <g id="_2816629755264">
   <g>
    <path class="fil0" d="M1944.7 39.69c1052.11,0 1905.01,852.9 1905.01,1905.01 0,1052.1 -852.9,1905.01 -1905.01,1905.01 -1052.11,0 -1905.01,-852.91 -1905.01,-1905.01 0,-1052.11 852.9,-1905.01 1905.01,-1905.01z"/>
    <path id="1" class="fil1" d="M3889.4 1944.7l-79.38 0 0 0 -2.43 -96.03 -7.2 -94.75 -11.86 -93.35 -16.41 -91.85 -20.82 -90.23 -25.14 -88.5 -29.32 -86.66 -33.39 -84.69 -37.35 -82.62 -41.19 -80.42 -44.92 -78.11 -48.52 -75.69 -52 -73.13 -55.38 -70.47 -58.64 -67.69 -61.77 -64.79 -64.79 -61.78 -67.69 -58.63 -70.47 -55.38 -73.14 -52.01 -75.68 -48.52 -78.11 -44.91 -80.43 -41.19 -82.61 -37.35 -84.7 -33.4 -86.65 -29.32 -88.5 -25.13 -90.24 -20.83 -91.85 -16.4 -93.35 -11.86 -94.74 -7.21 -96.03 -2.43 0 -79.37 100.03 2.53 98.75 7.51 97.32 12.36 95.77 17.11 94.1 21.71 92.3 26.21 90.37 30.58 88.33 34.83 86.15 38.95 83.86 42.95 81.44 46.82 78.9 50.59 76.24 54.21 73.46 57.73 70.56 61.11 67.53 64.39 64.38 67.53 61.12 70.55 57.72 73.46 54.22 76.24 50.58 78.9 46.83 81.45 42.95 83.85 38.95 86.16 34.82 88.32 30.58 90.37 26.21 92.3 21.72 94.1 17.1 95.78 12.37 97.32 7.51 98.74 2.53 100.04 0 0zm-1944.7 1944.69l0 -79.37 0 0 96.03 -2.43 94.74 -7.2 93.35 -11.87 91.85 -16.4 90.24 -20.82 88.5 -25.14 86.65 -29.32 84.7 -33.39 82.61 -37.35 80.43 -41.19 78.11 -44.92 75.68 -48.52 73.14 -52 70.47 -55.38 67.69 -58.64 64.79 -61.77 61.77 -64.79 58.64 -67.69 55.38 -70.47 52 -73.14 48.52 -75.68 44.92 -78.11 41.19 -80.43 37.35 -82.61 33.39 -84.7 29.32 -86.65 25.14 -88.5 20.82 -90.24 16.41 -91.85 11.86 -93.35 7.2 -94.74 2.43 -96.03 79.38 0 -2.53 100.03 -7.51 98.75 -12.37 97.32 -17.1 95.77 -21.72 94.1 -26.21 92.3 -30.58 90.37 -34.82 88.33 -38.95 86.15 -42.95 83.86 -46.83 81.44 -50.58 78.9 -54.22 76.24 -57.72 73.46 -61.12 70.56 -64.38 67.53 -67.53 64.38 -70.56 61.12 -73.46 57.72 -76.24 54.22 -78.9 50.58 -81.44 46.83 -83.86 42.95 -86.15 38.95 -88.33 34.82 -90.37 30.58 -92.3 26.21 -94.1 21.72 -95.77 17.1 -97.32 12.37 -98.75 7.51 -100.03 2.52 0 0zm-1944.7 -1944.69l79.37 0 0 0 2.43 96.03 7.21 94.74 11.86 93.35 16.4 91.85 20.83 90.24 25.13 88.5 29.32 86.65 33.4 84.7 37.35 82.61 41.19 80.43 44.91 78.11 48.52 75.68 52.01 73.14 55.38 70.47 58.63 67.69 61.78 64.79 64.79 61.77 67.69 58.64 70.47 55.38 73.13 52 75.69 48.52 78.11 44.92 80.42 41.19 82.62 37.35 84.69 33.39 86.66 29.32 88.5 25.14 90.23 20.82 91.85 16.4 93.35 11.87 94.75 7.2 96.03 2.43 0 79.37 -100.04 -2.52 -98.74 -7.51 -97.32 -12.37 -95.78 -17.1 -94.1 -21.72 -92.3 -26.21 -90.37 -30.58 -88.32 -34.82 -86.16 -38.95 -83.85 -42.95 -81.45 -46.83 -78.9 -50.58 -76.24 -54.22 -73.46 -57.72 -70.55 -61.12 -67.53 -64.38 -64.39 -67.53 -61.11 -70.56 -57.73 -73.46 -54.21 -76.24 -50.59 -78.9 -46.82 -81.44 -42.95 -83.86 -38.95 -86.15 -34.83 -88.33 -30.58 -90.37 -26.21 -92.3 -21.71 -94.1 -17.11 -95.77 -12.36 -97.32 -7.51 -98.75 -2.53 -100.03 0 0zm1944.7 -1944.7l0 79.37 0 0 -96.03 2.43 -94.75 7.21 -93.35 11.86 -91.85 16.4 -90.23 20.83 -88.5 25.13 -86.66 29.32 -84.69 33.4 -82.62 37.35 -80.42 41.19 -78.11 44.91 -75.69 48.52 -73.13 52.01 -70.47 55.38 -67.69 58.63 -64.79 61.78 -61.78 64.79 -58.63 67.69 -55.38 70.47 -52.01 73.13 -48.52 75.69 -44.91 78.11 -41.19 80.42 -37.35 82.62 -33.4 84.69 -29.32 86.66 -25.13 88.5 -20.83 90.23 -16.4 91.85 -11.86 93.35 -7.21 94.75 -2.43 96.03 -79.37 0 2.53 -100.04 7.51 -98.74 12.36 -97.32 17.11 -95.78 21.71 -94.1 26.21 -92.3 30.58 -90.37 34.83 -88.32 38.95 -86.16 42.95 -83.85 46.82 -81.45 50.59 -78.9 54.21 -76.24 57.73 -73.46 61.11 -70.55 64.39 -67.53 67.53 -64.39 70.55 -61.11 73.46 -57.73 76.24 -54.21 78.9 -50.59 81.45 -46.82 83.85 -42.95 86.16 -38.95 88.32 -34.83 90.37 -30.58 92.3 -26.21 94.1 -21.71 95.78 -17.11 97.32 -12.36 98.74 -7.51 100.04 -2.53 0 0z"/>
   </g>
   <path class="fil2" d="M237.16 2177.16c25.63,82.58 230.67,170.87 438.57,259.15l1882.43 797.4 -865.75 -578.11c-290.48,-193.66 -578.11,-384.46 -521.16,-580.97 56.96,-193.65 458.51,-393 860.06,-592.35 65.49,-31.33 91.13,-108.22 59.8,-170.87 -31.33,-62.65 -108.22,-88.28 -170.87,-56.96l-233.53 113.92 -1010.98 501.22c-310.42,150.93 -464.2,227.83 -438.57,307.57z"/>
   <path class="fil3" d="M2666.38 286.18c-82.59,-17.08 -262.01,116.76 -441.42,250.61l-1631.82 1230.28 934.09 -458.51c310.42,-153.78 620.84,-307.57 763.23,-159.48 139.54,145.24 111.07,592.36 82.59,1039.47 -5.7,71.2 48.41,131 116.76,136.69 71.19,5.7 131,-48.41 136.7,-119.6l17.08 -259.16 74.05 -1124.9c22.78,-347.44 34.17,-518.31 -51.26,-535.4l0 0z"/>
   <path class="fil4" d="M3090.71 3336.23c56.95,-62.65 31.32,-284.78 2.84,-506.92l-250.61 -2027.67 -65.5 1036.62c-22.78,347.44 -45.56,692.03 -244.91,740.44 -196.51,48.42 -569.57,-199.35 -942.64,-449.96 -59.81,-37.02 -136.7,-22.78 -176.57,37.02 -39.87,56.96 -22.78,136.7 34.18,176.57l216.43 145.24 939.79 626.53c287.64,190.81 430.03,287.63 486.99,222.13z"/>
  </g>
 </g>
</svg>
