<?xml version="1.0" encoding="UTF-8"?>
<!DOCTYPE svg PUBLIC "-//W3C//DTD SVG 1.1//EN" "http://www.w3.org/Graphics/SVG/1.1/DTD/svg11.dtd">
<!-- Creator: CorelDRAW 2019 (64-Bit) -->
<svg xmlns="http://www.w3.org/2000/svg" xml:space="preserve" width="4096px" height="4096px" version="1.1" style="shape-rendering:geometricPrecision; text-rendering:geometricPrecision; image-rendering:optimizeQuality; fill-rule:evenodd; clip-rule:evenodd"
viewBox="0 0 3999.33 3999.34"
 xmlns:xlink="http://www.w3.org/1999/xlink"
 xmlns:xodm="http://www.corel.com/coreldraw/odm/2003">
 <defs>
  <style type="text/css">
   <![CDATA[
    .fil2 {fill:#0075BE}
    .fil4 {fill:#191B38}
    .fil3 {fill:#C2C2C2}
    .fil0 {fill:white}
    .fil1 {fill:#0075BE;fill-rule:nonzero}
   ]]>
  </style>
 </defs>
 <g id="Слой_x0020_1">
  <metadata id="CorelCorpID_0Corel-Layer"/>
  <g id="_1684490638336">
   <g id="_2466931651696">
    <g>
     <path class="fil0" d="M1999.66 40.81c1081.84,0 1958.86,877.01 1958.86,1958.86 0,1081.84 -877.01,1958.86 -1958.86,1958.86 -1081.85,0 -1958.86,-877.01 -1958.86,-1958.86 0,-1081.85 877.01,-1958.86 1958.86,-1958.86z"/>
     <path id="_1" class="fil1" d="M3999.33 1999.67l-81.62 0 0 0 -2.49 -98.75 -7.41 -97.42 -12.2 -95.99 -16.87 -94.45 -21.41 -92.77 -25.85 -91.01 -30.14 -89.1 -34.34 -87.09 -38.4 -84.96 -42.36 -82.69 -46.18 -80.33 -49.89 -77.82 -53.48 -75.2 -56.95 -72.47 -60.29 -69.6 -63.52 -66.62 -66.62 -63.52 -69.6 -60.29 -72.47 -56.95 -75.2 -53.48 -77.82 -49.89 -80.33 -46.18 -82.69 -42.36 -84.95 -38.4 -87.09 -34.34 -89.11 -30.14 -91 -25.85 -92.78 -21.41 -94.45 -16.87 -95.99 -12.2 -97.41 -7.4 -98.75 -2.5 0 -81.62 102.86 2.6 101.54 7.72 100.07 12.72 98.48 17.58 96.76 22.34 94.91 26.95 92.93 31.44 90.82 35.81 88.59 40.05 86.22 44.17 83.75 48.15 81.13 52.01 78.4 55.75 75.53 59.35 72.55 62.85 69.44 66.2 66.2 69.44 62.84 72.55 59.36 75.53 55.75 78.4 52.01 81.13 48.15 83.74 44.16 86.23 40.05 88.59 35.81 90.82 31.44 92.93 26.95 94.9 22.33 96.76 17.59 98.48 12.72 100.07 7.72 101.54 2.6 102.87 0 0 0 0zm-1999.66 1999.67l0 -81.62 0 0 98.74 -2.5 97.42 -7.41 95.99 -12.2 94.45 -16.87 92.78 -21.41 91 -25.84 89.11 -30.15 87.08 -34.34 84.95 -38.4 82.7 -42.36 80.32 -46.18 77.82 -49.89 75.21 -53.48 72.46 -56.95 69.61 -60.29 66.62 -63.51 63.52 -66.63 60.29 -69.6 56.94 -72.47 53.48 -75.2 49.89 -77.82 46.19 -80.32 42.35 -82.7 38.41 -84.95 34.34 -87.09 30.14 -89.11 25.84 -91 21.41 -92.78 16.88 -94.44 12.19 -95.99 7.41 -97.42 2.5 -98.75 81.62 0 -2.6 102.87 -7.72 101.53 -12.72 100.08 -17.59 98.48 -22.33 96.76 -26.95 94.9 -31.44 92.93 -35.81 90.82 -40.05 88.59 -44.16 86.23 -48.15 83.74 -52.01 81.13 -55.75 78.4 -59.36 75.53 -62.84 72.55 -66.2 69.44 -69.44 66.2 -72.55 62.85 -75.53 59.35 -78.4 55.75 -81.13 52.01 -83.75 48.15 -86.22 44.16 -88.59 40.06 -90.82 35.8 -92.93 31.45 -94.91 26.94 -96.76 22.34 -98.48 17.59 -100.07 12.71 -101.54 7.72 -102.86 2.6 0 0 0 0.01zm-1999.67 -1999.67l81.62 0 0 0 2.5 98.74 7.4 97.42 12.2 95.99 16.87 94.45 21.41 92.78 25.85 91 30.14 89.11 34.34 87.08 38.4 84.95 42.36 82.7 46.18 80.32 49.89 77.82 53.48 75.21 56.95 72.46 60.29 69.61 63.52 66.62 66.62 63.52 69.6 60.29 72.47 56.94 75.2 53.48 77.82 49.89 80.33 46.19 82.69 42.35 84.96 38.41 87.09 34.34 89.1 30.14 91.01 25.84 92.77 21.42 94.45 16.87 95.99 12.19 97.42 7.41 98.75 2.5 0 81.62 -102.87 -2.6 -101.54 -7.72 -100.07 -12.72 -98.48 -17.59 -96.76 -22.33 -94.9 -26.95 -92.93 -31.44 -90.82 -35.81 -88.59 -40.05 -86.23 -44.16 -83.74 -48.15 -81.13 -52.01 -78.4 -55.75 -75.53 -59.36 -72.55 -62.84 -69.44 -66.2 -66.2 -69.44 -62.85 -72.55 -59.35 -75.53 -55.75 -78.4 -52.01 -81.13 -48.15 -83.75 -44.17 -86.22 -40.05 -88.59 -35.81 -90.82 -31.45 -92.93 -26.94 -94.91 -22.34 -96.76 -17.58 -98.48 -12.72 -100.07 -7.72 -101.54 -2.6 -102.86 0 0 0 0zm1999.67 -1999.67l0 81.62 0 0 -98.75 2.5 -97.42 7.41 -95.99 12.19 -94.45 16.88 -92.77 21.41 -91.01 25.84 -89.1 30.15 -87.09 34.33 -84.96 38.41 -82.69 42.35 -80.33 46.18 -77.82 49.9 -75.2 53.48 -72.47 56.94 -69.6 60.29 -66.62 63.52 -63.52 66.62 -60.29 69.61 -56.95 72.46 -53.48 75.2 -49.89 77.83 -46.18 80.32 -42.36 82.7 -38.4 84.95 -34.34 87.09 -30.14 89.11 -25.85 91 -21.41 92.78 -16.87 94.44 -12.2 95.99 -7.4 97.43 -2.5 98.74 -81.62 0 2.6 -102.86 7.72 -101.54 12.72 -100.07 17.58 -98.49 22.34 -96.75 26.94 -94.91 31.45 -92.93 35.81 -90.82 40.05 -88.59 44.17 -86.23 48.15 -83.74 52.01 -81.13 55.75 -78.4 59.35 -75.53 62.85 -72.55 66.2 -69.44 69.44 -66.2 72.55 -62.84 75.53 -59.36 78.4 -55.75 81.13 -52.01 83.74 -48.15 86.23 -44.17 88.59 -40.05 90.82 -35.81 92.93 -31.44 94.9 -26.95 96.76 -22.33 98.48 -17.59 100.07 -12.71 101.54 -7.72 102.87 -2.61 0 0z"/>
    </g>
    <g id="_2466931651376">
     <path class="fil2" d="M852.56 1241.61c2.02,-1.15 4.69,-2.92 5.9,-3.74l11.39 -7.64c1.54,-1.11 3.83,-2.83 5.39,-4.01l45.89 -37.57c62.25,-52.09 123,-100.84 195.04,-140.28 119,-65.15 191.19,-93.65 319.04,-128.33 251.33,-68.18 544.83,-32.79 748.13,70.35 322.67,163.7 555.34,493.58 481.84,854.26 -21.54,105.68 -86.44,237.89 -158,281.43 -25.6,45.62 -112.51,85.98 -163.05,96.76 -10.72,2.28 -24.23,4.54 -35.17,4.69 -46.97,0.62 -27.62,-3.67 -30,-6.18 -22.74,55.68 -11.81,168.07 -9.18,231.43 275.62,-11.13 425.63,-157.79 532.14,-342.16 189.35,-327.74 89.91,-709.21 -115.06,-999.99 -173.07,-245.52 -528.99,-411.33 -855.75,-445.32 -244.91,-18.93 -464.97,30.33 -663.33,109.14 -192,76.27 -328.14,180.93 -465.54,314.61 17.14,10.21 144.87,129.87 150.31,152.55l0.01 0z"/>
     <path class="fil2" d="M2265.73 3336.75c338.25,-22.92 574.14,-76.03 833.38,-257.54 30.17,-21.12 64.99,-46.44 99.6,-77.65l74.82 -64.92c21.21,-28.86 6.9,5.63 18.07,-37.64 -61.67,-44.85 -95.91,-102.42 -155.76,-140.27 -46.33,40.59 -76.87,76.96 -120.22,105.92 -47.02,31.41 -83.27,57.88 -135.68,87.83 -104.82,59.9 -194.83,92.79 -319.84,125.93 -275.56,73.06 -527.95,33.33 -756.57,-77.52 -102.07,-49.49 -177.96,-108.56 -256.66,-189.99 -162.86,-168.51 -262.07,-420.21 -210.38,-657.93 25.28,-116.26 82.41,-228.74 156.75,-281.42 56.27,-66.9 130.05,-97.74 240.06,-104.9l-2.97 -220.08c-650.93,-13.67 -937.01,1068.47 -153.68,1578.26 198.75,129.35 398.57,206.35 689.07,211.91l0.01 0.01z"/>
     <path class="fil3" d="M2765.4 864.73c12.27,26.39 31.14,37.35 50.92,60.4 16.85,19.61 33.48,38.25 51.43,60.49 91.18,113.01 184.72,308.09 217.79,452.81 64.4,281.85 40.1,520.98 -74.1,750.77 -48.84,98.29 -130.96,199.88 -189.65,258.35 -153.98,153.4 -429.99,262.58 -660.47,214.99 -66.28,-13.69 -105.56,-29.75 -163.44,-60.25 -41.74,-21.99 -103.49,-59.94 -127.92,-99.83 -60.59,-32.39 -93.26,-147.33 -105.01,-237.48l-220.05 2.65c12.78,270.24 167.93,444.48 359.31,539.87 221.67,110.49 495.31,114.28 735.04,17.87 386.98,-155.64 697.42,-559.59 705.34,-1093.63 -13.76,-336.6 -81.17,-559.31 -254.91,-818.14 -38.41,-57.23 -122.76,-168.28 -174.37,-198.08 -34.09,21.57 -130.11,120.73 -149.92,149.22l0.01 -0.01z"/>
     <path class="fil3" d="M651.97 2269.33c6.56,20.33 15.12,199.84 40.05,314.74 36.75,169.41 121.99,365.76 222.97,504.83 37.35,51.44 124.24,170.55 165.38,196.33 33.2,-15.02 136.06,-122 155.99,-149.37 -13.98,-31.12 -69.8,-83.76 -100.45,-119.5 -91.99,-107.22 -182.97,-306.29 -219.68,-451.82 -69.69,-276.33 -38.68,-530.03 74.32,-756.61 87.43,-175.29 259.06,-359.73 462.97,-430.78 119.13,-41.52 248.15,-69.87 394.04,-39.12 105.23,22.18 245.92,95.3 283.13,157.04 60.4,37.96 99.16,143.21 99.61,230.34 58.77,17.16 157.63,4.3 222.9,7.45l-1.4 -72.11c-142.23,-724.72 -1177.88,-733.77 -1596.68,-62.65 -228.35,365.91 -169,544.79 -203.15,671.23z"/>
     <path class="fil4" d="M852.56 1241.61c-45.47,78.59 -166.51,161.75 -289.93,427.87 -56.28,121.36 -156.03,437.9 -123.77,598.46l213.11 1.39c34.15,-126.44 -25.2,-305.32 203.15,-671.23 418.8,-671.12 1454.45,-662.07 1596.68,62.65 5.32,62.23 4.11,122.16 -14.31,178.29 -22.45,68.41 -65.89,105.04 -78.37,142.2l148.06 144.84c71.56,-43.55 136.46,-175.76 158,-281.43 73.5,-360.69 -159.17,-690.56 -481.84,-854.27 -203.29,-103.14 -496.8,-138.52 -748.13,-70.35 -127.85,34.69 -200.04,63.19 -319.04,128.34 -72.04,39.44 -132.79,88.19 -195.04,140.28l-45.88 37.56c-1.57,1.19 -3.85,2.9 -5.39,4.01l-11.4 7.65c-1.21,0.82 -3.87,2.58 -5.9,3.74l0 0z"/>
     <path class="fil4" d="M1831.12 665.31c326.76,34 682.67,199.8 855.75,445.32 204.97,290.78 304.41,672.25 115.06,999.99 -106.52,184.37 -256.53,331.03 -532.14,342.16 -50.44,-5.73 -97.96,-13.81 -139.51,-31.17 -53.51,-22.36 -55.97,-30.59 -99.84,-64.91 -39.11,13.23 -134.13,116.87 -160.46,145.75 24.42,39.89 86.18,77.84 127.92,99.83 57.88,30.51 97.15,46.56 163.44,60.25 230.47,47.59 506.48,-61.59 660.46,-214.99 58.7,-58.47 140.82,-160.06 189.66,-258.35 114.19,-229.79 138.49,-468.92 74.09,-750.77 -33.06,-144.72 -126.61,-339.8 -217.79,-452.81 -17.94,-22.24 -34.58,-40.88 -51.42,-60.49 -19.79,-23.05 -38.65,-34.01 -50.93,-60.39 -56.42,-33.76 -155.5,-170.77 -431.77,-295.98 -149.92,-67.95 -407.24,-140.08 -602.8,-127.37l0.44 218.32 99.85 5.61 -0.01 0z"/>
     <path class="fil4" d="M1544.91 2267.63c14.92,-138.11 35.33,-154.21 97.45,-239.32 -25.47,-46.19 -112.51,-112.27 -149.12,-156.76 -74.34,52.69 -131.47,165.16 -156.75,281.42 -51.69,237.72 47.53,489.42 210.38,657.93 78.71,81.44 154.59,140.5 256.67,190 228.62,110.84 481,150.58 756.56,77.52 125.02,-33.15 215.02,-66.04 319.84,-125.94 52.4,-29.95 88.66,-56.42 135.68,-87.83 43.36,-28.96 73.89,-65.33 120.22,-105.92 19.37,-29.19 57.92,-55.71 85.48,-88.8 86.82,-104.25 151.42,-203.81 213.12,-336.14 71.86,-154.14 144.98,-400.7 130.45,-601.89l-220.3 -0.16c-7.92,534.04 -318.36,937.99 -705.34,1093.62 -239.72,96.41 -513.36,92.62 -735.03,-17.87 -191.38,-95.39 -346.53,-269.63 -359.31,-539.86l0 0z"/>
     <path class="fil4" d="M1236.37 3135.86l203.45 164.01c196.12,138.3 598.67,293.41 827.99,253.04l-2.08 -216.17c-290.51,-5.56 -490.33,-82.56 -689.07,-211.91 -783.33,-509.79 -497.25,-1591.94 153.68,-1578.26 118.11,4.74 175.61,41.47 242.33,98.37 52.07,-38.68 101.29,-105.68 158.02,-149.87 -37.2,-61.74 -177.9,-134.86 -283.12,-157.04 -145.89,-30.75 -274.92,-2.4 -394.05,39.11 -203.9,71.06 -375.53,255.49 -462.96,430.79 -113.01,226.57 -144.01,480.28 -74.32,756.61 36.7,145.53 127.69,344.6 219.67,451.82 30.66,35.73 86.47,88.37 100.46,119.49l0 0.01z"/>
    </g>
   </g>
  </g>
 </g>
</svg>
