<?xml version="1.0" standalone="no"?>
<!DOCTYPE svg PUBLIC "-//W3C//DTD SVG 20010904//EN"
 "http://www.w3.org/TR/2001/REC-SVG-20010904/DTD/svg10.dtd">
<svg version="1.0" xmlns="http://www.w3.org/2000/svg"
 width="256.000000pt" height="256.000000pt" viewBox="0 0 256.000000 256.000000"
 preserveAspectRatio="xMidYMid meet">
<metadata>
Created by potrace 1.11, written by Peter Selinger 2001-2013
</metadata>
<g transform="translate(0.000000,256.000000) scale(0.100000,-0.100000)"
fill="#000000" stroke="none">
<path d="M1085 2545 c-131 -20 -233 -53 -360 -115 -269 -130 -464 -325 -596
-595 -88 -180 -129 -357 -129 -555 0 -198 41 -375 129 -555 132 -270 326 -464
596 -596 132 -64 221 -92 365 -114 174 -27 371 -14 550 35 104 29 300 127 396
197 376 279 575 743 513 1200 -36 272 -170 543 -365 737 -194 195 -465 329
-737 365 -102 14 -261 12 -362 -4z m396 -51 c820 -138 1270 -1028 895 -1771
-305 -605 -1044 -846 -1653 -539 -605 305 -846 1044 -539 1653 174 346 504
589 891 657 109 19 292 19 406 0z"/>
<path d="M1627 2288 c-66 -36 -1204 -888 -1186 -888 3 0 171 81 372 180 201
99 401 192 444 206 136 46 221 25 258 -63 33 -78 42 -246 27 -502 -8 -130 0
-163 45 -179 38 -13 90 8 102 40 10 29 71 960 71 1093 0 153 -24 172 -133 113z"/>
<path d="M1827 1930 c-4 -30 -14 -172 -22 -315 -28 -480 -43 -587 -88 -667
-26 -48 -62 -68 -120 -68 -89 0 -193 48 -430 201 -102 65 -147 89 -171 89 -56
0 -91 -58 -70 -115 7 -17 866 -595 952 -641 25 -13 59 -24 77 -24 41 0 55 29
55 117 0 51 -160 1399 -173 1463 -2 8 -7 -10 -10 -40z"/>
</g>
</svg>
