<?xml version="1.0" encoding="UTF-8"?>
<!DOCTYPE svg PUBLIC "-//W3C//DTD SVG 1.1//EN" "http://www.w3.org/Graphics/SVG/1.1/DTD/svg11.dtd">
<!-- Creator: CorelDRAW 2018 (64-Bit) -->
<svg xmlns="http://www.w3.org/2000/svg" xml:space="preserve" width="426px" height="134px" version="1.1" style="shape-rendering:geometricPrecision; text-rendering:geometricPrecision; image-rendering:optimizeQuality; fill-rule:evenodd; clip-rule:evenodd"
viewBox="0 0 1045.32 328.01"
 xmlns:xlink="http://www.w3.org/1999/xlink">
 <defs>
  <style type="text/css">
   <![CDATA[
    .fil2 {fill:#0075BE}
    .fil3 {fill:#191B38}
    .fil1 {fill:#C2C2C2}
    .fil0 {fill:#0075BE;fill-rule:nonzero}
    .fil4 {fill:#191B38;fill-rule:nonzero}
   ]]>
  </style>
 </defs>
 <g id="Слой_x0020_1">
  <metadata id="CorelCorpID_0Corel-Layer"/>
  <g>
   <path class="fil0" d="M328.01 164l-6.7 0 0 0 -0.2 -8.1 -0.61 -7.99 -1 -7.87 -1.38 -7.74 -1.76 -7.61 -2.12 -7.47 -2.47 -7.31 -2.82 -7.14 -3.15 -6.97 -3.47 -6.78 -3.79 -6.59 -4.09 -6.38 -4.39 -6.17 -4.67 -5.94 -4.94 -5.71 -5.21 -5.46 -5.47 -5.21 -5.71 -4.95 -5.94 -4.67 -6.17 -4.38 -6.38 -4.09 -6.59 -3.79 -6.78 -3.48 -6.97 -3.15 -7.14 -2.81 -7.31 -2.47 -7.46 -2.12 -7.61 -1.76 -7.75 -1.38 -7.87 -1 -7.99 -0.61 -8.1 -0.21 0 -6.69 8.44 0.21 8.33 0.64 8.2 1.04 8.08 1.44 7.94 1.83 7.78 2.21 7.62 2.58 7.45 2.94 7.27 3.28 7.07 3.63 6.87 3.95 6.65 4.26 6.43 4.57 6.2 4.87 5.95 5.16 5.69 5.43 5.43 5.69 5.15 5.95 4.87 6.2 4.58 6.43 4.26 6.65 3.95 6.87 3.62 7.07 3.29 7.27 2.93 7.44 2.58 7.63 2.21 7.78 1.83 7.93 1.45 8.08 1.04 8.21 0.63 8.33 0.22 8.43 0 0zm-164.01 164.01l0 -6.7 0 0 8.1 -0.2 7.99 -0.61 7.87 -1 7.75 -1.38 7.61 -1.76 7.46 -2.12 7.31 -2.47 7.14 -2.82 6.97 -3.15 6.78 -3.47 6.59 -3.79 6.38 -4.09 6.17 -4.39 5.94 -4.67 5.71 -4.94 5.47 -5.21 5.21 -5.47 4.94 -5.71 4.67 -5.94 4.39 -6.17 4.09 -6.38 3.79 -6.59 3.47 -6.78 3.15 -6.97 2.82 -7.14 2.47 -7.31 2.12 -7.46 1.76 -7.61 1.38 -7.75 1 -7.87 0.61 -7.99 0.2 -8.1 6.7 0 -0.22 8.44 -0.63 8.33 -1.04 8.2 -1.45 8.08 -1.83 7.94 -2.21 7.78 -2.58 7.62 -2.93 7.45 -3.29 7.27 -3.62 7.07 -3.95 6.87 -4.26 6.65 -4.58 6.43 -4.87 6.2 -5.15 5.95 -5.43 5.69 -5.69 5.43 -5.95 5.15 -6.2 4.87 -6.43 4.58 -6.65 4.26 -6.87 3.95 -7.07 3.62 -7.27 3.29 -7.45 2.93 -7.62 2.58 -7.78 2.21 -7.94 1.83 -8.08 1.45 -8.2 1.04 -8.33 0.63 -8.44 0.22 0 0zm-164 -164.01l6.69 0 0 0 0.21 8.1 0.61 7.99 1 7.87 1.38 7.75 1.76 7.61 2.12 7.46 2.47 7.31 2.81 7.14 3.15 6.97 3.48 6.78 3.79 6.59 4.09 6.38 4.38 6.17 4.67 5.94 4.95 5.71 5.21 5.47 5.46 5.21 5.71 4.94 5.94 4.67 6.17 4.39 6.38 4.09 6.59 3.79 6.78 3.47 6.97 3.15 7.14 2.82 7.31 2.47 7.47 2.12 7.61 1.76 7.74 1.38 7.87 1 7.99 0.61 8.1 0.2 0 6.7 -8.43 -0.22 -8.33 -0.63 -8.21 -1.04 -8.08 -1.45 -7.93 -1.83 -7.78 -2.21 -7.63 -2.58 -7.44 -2.93 -7.27 -3.29 -7.07 -3.62 -6.87 -3.95 -6.65 -4.26 -6.43 -4.58 -6.2 -4.87 -5.95 -5.15 -5.69 -5.43 -5.43 -5.69 -5.16 -5.95 -4.87 -6.2 -4.57 -6.43 -4.26 -6.65 -3.95 -6.87 -3.63 -7.07 -3.28 -7.27 -2.94 -7.45 -2.58 -7.62 -2.21 -7.78 -1.83 -7.94 -1.44 -8.08 -1.04 -8.2 -0.64 -8.33 -0.21 -8.44 0 0zm164 -164l0 6.69 0 0 -8.1 0.21 -7.99 0.61 -7.87 1 -7.74 1.38 -7.61 1.76 -7.47 2.12 -7.31 2.47 -7.14 2.81 -6.97 3.15 -6.78 3.48 -6.59 3.79 -6.38 4.09 -6.17 4.38 -5.94 4.67 -5.71 4.95 -5.46 5.21 -5.21 5.46 -4.95 5.71 -4.67 5.94 -4.38 6.17 -4.09 6.38 -3.79 6.59 -3.48 6.78 -3.15 6.97 -2.81 7.14 -2.47 7.31 -2.12 7.47 -1.76 7.61 -1.38 7.74 -1 7.87 -0.61 7.99 -0.21 8.1 -6.69 0 0.21 -8.43 0.64 -8.33 1.04 -8.21 1.44 -8.08 1.83 -7.93 2.21 -7.78 2.58 -7.63 2.94 -7.44 3.28 -7.27 3.63 -7.07 3.95 -6.87 4.26 -6.65 4.57 -6.43 4.87 -6.2 5.16 -5.95 5.43 -5.69 5.69 -5.43 5.95 -5.16 6.2 -4.87 6.43 -4.57 6.65 -4.26 6.87 -3.95 7.07 -3.63 7.27 -3.28 7.44 -2.94 7.63 -2.58 7.78 -2.21 7.93 -1.83 8.08 -1.44 8.21 -1.04 8.33 -0.64 8.43 -0.21 0 0z"/>
  </g>
  <path class="fil1" d="M20 183.61c2.16,6.96 19.45,14.41 36.99,21.85l158.75 67.25 -73.01 -48.75c-24.5,-16.34 -48.76,-32.43 -43.95,-49 4.8,-16.33 38.66,-33.14 72.53,-49.95 5.52,-2.65 7.68,-9.13 5.04,-14.41 -2.64,-5.29 -9.13,-7.45 -14.41,-4.81l-19.69 9.61 -85.26 42.27c-26.18,12.73 -39.15,19.21 -36.99,25.94z"/>
  <path class="fil2" d="M224.86 24.13c-6.96,-1.44 -22.09,9.85 -37.22,21.14l-137.62 103.75 78.78 -38.66c26.18,-12.97 52.35,-25.94 64.36,-13.45 11.77,12.24 9.37,49.95 6.97,87.66 -0.48,6 4.08,11.05 9.84,11.53 6.01,0.48 11.05,-4.09 11.53,-10.09l1.44 -21.86 6.25 -94.86c1.92,-29.3 2.88,-43.71 -4.33,-45.16l0 0z"/>
  <path class="fil3" d="M260.65 281.36c4.8,-5.29 2.64,-24.02 0.24,-42.75l-21.13 -171 -5.53 87.42c-1.92,29.3 -3.84,58.36 -20.65,62.44 -16.57,4.08 -48.04,-16.81 -79.5,-37.95 -5.04,-3.12 -11.53,-1.92 -14.89,3.13 -3.36,4.8 -1.92,11.52 2.88,14.89l18.26 12.25 79.25 52.83c24.26,16.09 36.27,24.26 41.07,18.74z"/>
  <path class="fil4" d="M345.77 240.75l2.17 -21.45 22.03 0 0 5.08 -17.39 0 -1.3 11.7c2.1,-1.24 4.5,-1.85 7.17,-1.85 3.92,0 7.03,1.29 9.33,3.88 2.31,2.59 3.46,6.08 3.46,10.49 0,4.43 -1.2,7.92 -3.59,10.47 -2.39,2.55 -5.73,3.81 -10.02,3.81 -3.8,0 -6.9,-1.05 -9.3,-3.16 -2.4,-2.1 -3.77,-5.02 -4.11,-8.73l5.17 0c0.34,2.45 1.21,4.31 2.63,5.55 1.41,1.25 3.29,1.87 5.61,1.87 2.53,0 4.53,-0.87 5.98,-2.6 1.44,-1.72 2.17,-4.11 2.17,-7.16 0,-2.87 -0.79,-5.17 -2.35,-6.91 -1.56,-1.75 -3.65,-2.61 -6.25,-2.61 -2.38,0 -4.25,0.52 -5.6,1.56l-1.45 1.19 -4.36 -1.13z"/>
  <path id="1" class="fil4" d="M378.61 262.28l0 -42.98 12.13 0c3.74,0 7.05,0.83 9.93,2.48 2.87,1.65 5.08,4.01 6.65,7.05 1.57,3.05 2.35,6.56 2.37,10.51l0 2.75c0,4.05 -0.78,7.61 -2.34,10.66 -1.57,3.04 -3.8,5.39 -6.7,7.02 -2.91,1.63 -6.28,2.47 -10.14,2.51l-11.9 0zm5.67 -38.33l0 33.68 5.96 0c4.37,0 7.77,-1.37 10.2,-4.08 2.43,-2.72 3.64,-6.57 3.64,-11.59l0 -2.51c0,-4.89 -1.14,-8.68 -3.43,-11.38 -2.29,-2.71 -5.54,-4.08 -9.76,-4.12l-6.61 0z"/>
  <path id="2" class="fil4" d="M452.08 262.28c-0.31,-0.62 -0.56,-1.74 -0.76,-3.36 -2.54,2.64 -5.58,3.96 -9.09,3.96 -3.16,0 -5.74,-0.88 -7.75,-2.67 -2.02,-1.78 -3.02,-4.04 -3.02,-6.77 0,-3.32 1.26,-5.91 3.79,-7.74 2.52,-1.85 6.08,-2.76 10.66,-2.76l5.31 0 0 -2.51c0,-1.91 -0.56,-3.43 -1.7,-4.57 -1.15,-1.13 -2.83,-1.69 -5.05,-1.69 -1.95,0 -3.58,0.49 -4.9,1.47 -1.32,0.99 -1.98,2.18 -1.98,3.57l-5.49 0c0,-1.59 0.57,-3.14 1.69,-4.63 1.14,-1.48 2.67,-2.66 4.62,-3.52 1.93,-0.87 4.06,-1.3 6.39,-1.3 3.67,0 6.56,0.91 8.64,2.76 2.09,1.83 3.17,4.37 3.25,7.59l0 14.7c0,2.94 0.38,5.26 1.12,7l0 0.47 -5.73 0zm-9.06 -4.05c1.72,0 3.34,-0.44 4.87,-1.34 1.54,-0.89 2.65,-2.06 3.33,-3.48l0 -6.61 -4.27 0c-6.69,0 -10.03,1.98 -10.03,5.93 0,1.72 0.56,3.07 1.7,4.04 1.15,0.98 2.61,1.46 4.4,1.46z"/>
  <path id="3" class="fil4" d="M463.92 246.06c0,-4.91 1.17,-8.85 3.49,-11.83 2.32,-2.98 5.36,-4.47 9.11,-4.47 3.75,0 6.7,1.28 8.89,3.84l0 -16.66 5.46 0 0 45.34 -5.02 0 -0.26 -3.42c-2.19,2.68 -5.23,4.02 -9.12,4.02 -3.7,0 -6.72,-1.51 -9.04,-4.54 -2.34,-3.03 -3.51,-6.99 -3.51,-11.87l0 -0.41zm5.46 0.61c0,3.62 0.76,6.45 2.25,8.5 1.5,2.04 3.56,3.06 6.19,3.06 3.47,0 6,-1.55 7.59,-4.65l0 -14.65c-1.63,-3.02 -4.14,-4.52 -7.53,-4.52 -2.67,0 -4.75,1.03 -6.25,3.09 -1.49,2.07 -2.25,5.12 -2.25,9.17z"/>
  <path id="4" class="fil4" d="M498.01 246.06c0,-4.91 1.17,-8.85 3.49,-11.83 2.33,-2.98 5.36,-4.47 9.12,-4.47 3.75,0 6.7,1.28 8.88,3.84l0 -16.66 5.47 0 0 45.34 -5.02 0 -0.26 -3.42c-2.19,2.68 -5.23,4.02 -9.12,4.02 -3.71,0 -6.72,-1.51 -9.05,-4.54 -2.34,-3.03 -3.51,-6.99 -3.51,-11.87l0 -0.41zm5.46 0.61c0,3.62 0.76,6.45 2.25,8.5 1.5,2.04 3.57,3.06 6.2,3.06 3.46,0 5.99,-1.55 7.58,-4.65l0 -14.65c-1.63,-3.02 -4.14,-4.52 -7.52,-4.52 -2.67,0 -4.76,1.03 -6.26,3.09 -1.49,2.07 -2.25,5.12 -2.25,9.17z"/>
  <path id="5" class="fil4" d="M539.38 262.28l-5.46 0 0 -31.92 5.46 0 0 31.92zm-5.9 -40.41c0,-0.89 0.27,-1.64 0.81,-2.26 0.54,-0.61 1.35,-0.92 2.4,-0.92 1.07,0 1.88,0.31 2.42,0.92 0.56,0.62 0.83,1.37 0.83,2.26 0,0.88 -0.27,1.63 -0.83,2.22 -0.54,0.6 -1.35,0.89 -2.42,0.89 -1.05,0 -1.86,-0.29 -2.4,-0.89 -0.54,-0.59 -0.81,-1.34 -0.81,-2.22z"/>
  <path id="6" class="fil4" d="M555.53 222.62l0 7.74 5.96 0 0 4.23 -5.96 0 0 19.8c0,1.28 0.27,2.24 0.8,2.88 0.52,0.64 1.43,0.96 2.71,0.96 0.63,0 1.5,-0.12 2.6,-0.35l0 4.42c-1.44,0.38 -2.83,0.58 -4.19,0.58 -2.44,0 -4.28,-0.73 -5.52,-2.21 -1.24,-1.47 -1.86,-3.57 -1.86,-6.28l0 -19.8 -5.82 0 0 -4.23 5.82 0 0 -7.74 5.46 0z"/>
  <path id="7" class="fil4" d="M573.8 262.28l-5.46 0 0 -31.92 5.46 0 0 31.92zm-5.9 -40.41c0,-0.89 0.27,-1.64 0.8,-2.26 0.55,-0.61 1.35,-0.92 2.41,-0.92 1.07,0 1.87,0.31 2.42,0.92 0.55,0.62 0.82,1.37 0.82,2.26 0,0.88 -0.27,1.63 -0.82,2.22 -0.55,0.6 -1.35,0.89 -2.42,0.89 -1.06,0 -1.86,-0.29 -2.41,-0.89 -0.53,-0.59 -0.8,-1.34 -0.8,-2.22z"/>
  <polygon id="8" class="fil4" points="593.05,254.87 600.96,230.36 606.55,230.36 595.09,262.28 590.93,262.28 579.36,230.36 584.93,230.36 "/>
  <path id="9" class="fil4" d="M624.68 262.88c-4.32,0 -7.85,-1.42 -10.57,-4.26 -2.71,-2.85 -4.07,-6.65 -4.07,-11.41l0 -1.01c0,-3.16 0.61,-6 1.81,-8.48 1.21,-2.49 2.91,-4.45 5.08,-5.85 2.18,-1.41 4.54,-2.11 7.08,-2.11 4.15,0 7.37,1.37 9.68,4.1 2.3,2.74 3.45,6.66 3.45,11.76l0 2.27 -21.64 0c0.08,3.15 1,5.69 2.76,7.62 1.77,1.93 4,2.9 6.72,2.9 1.93,0 3.56,-0.39 4.9,-1.18 1.34,-0.78 2.51,-1.82 3.52,-3.11l3.33 2.6c-2.68,4.11 -6.7,6.16 -12.05,6.16zm-0.67 -28.65c-2.21,0 -4.05,0.81 -5.56,2.42 -1.49,1.61 -2.41,3.87 -2.77,6.77l16 0 0 -0.41c-0.16,-2.79 -0.9,-4.95 -2.24,-6.48 -1.34,-1.53 -3.16,-2.3 -5.43,-2.3z"/>
  <path id="10" class="fil4" d="M663.54 230.36l0.14 3.53c2.35,-2.75 5.5,-4.13 9.48,-4.13 4.47,0 7.51,1.71 9.12,5.14 1.06,-1.55 2.45,-2.79 4.15,-3.72 1.69,-0.95 3.71,-1.42 6.04,-1.42 7,0 10.56,3.7 10.68,11.12l0 21.4 -5.46 0 0 -21.06c0,-2.27 -0.53,-3.99 -1.57,-5.12 -1.04,-1.12 -2.79,-1.69 -5.25,-1.69 -2.03,0 -3.71,0.61 -5.05,1.82 -1.33,1.2 -2.12,2.83 -2.33,4.87l0 21.18 -5.49 0 0 -20.91c0,-4.64 -2.28,-6.96 -6.82,-6.96 -3.58,0 -6.03,1.52 -7.35,4.58l0 23.29 -5.46 0 0 -31.92 5.17 0z"/>
  <path id="11" class="fil4" d="M731.12 262.28c-0.32,-0.62 -0.57,-1.74 -0.77,-3.36 -2.54,2.64 -5.57,3.96 -9.09,3.96 -3.15,0 -5.73,-0.88 -7.75,-2.67 -2.01,-1.78 -3.02,-4.04 -3.02,-6.77 0,-3.32 1.26,-5.91 3.79,-7.74 2.53,-1.85 6.09,-2.76 10.67,-2.76l5.31 0 0 -2.51c0,-1.91 -0.56,-3.43 -1.7,-4.57 -1.15,-1.13 -2.83,-1.69 -5.05,-1.69 -1.96,0 -3.59,0.49 -4.91,1.47 -1.32,0.99 -1.97,2.18 -1.97,3.57l-5.49 0c0,-1.59 0.56,-3.14 1.69,-4.63 1.14,-1.48 2.67,-2.66 4.61,-3.52 1.94,-0.87 4.06,-1.3 6.39,-1.3 3.68,0 6.56,0.91 8.65,2.76 2.08,1.83 3.17,4.37 3.24,7.59l0 14.7c0,2.94 0.38,5.26 1.13,7l0 0.47 -5.73 0zm-9.06 -4.05c1.71,0 3.33,-0.44 4.86,-1.34 1.55,-0.89 2.65,-2.06 3.34,-3.48l0 -6.61 -4.27 0c-6.69,0 -10.04,1.98 -10.04,5.93 0,1.72 0.57,3.07 1.71,4.04 1.14,0.98 2.6,1.46 4.4,1.46z"/>
  <path id="12" class="fil4" d="M749.46 230.36l0.17 4c2.44,-3.07 5.64,-4.6 9.57,-4.6 6.75,0 10.15,3.81 10.21,11.42l0 21.1 -5.46 0 0 -21.12c-0.02,-2.29 -0.54,-4 -1.58,-5.1 -1.03,-1.09 -2.64,-1.65 -4.83,-1.65 -1.76,0 -3.32,0.48 -4.66,1.41 -1.33,0.95 -2.38,2.19 -3.13,3.72l0 22.74 -5.46 0 0 -31.92 5.17 0z"/>
  <path id="13" class="fil4" d="M797.35 259.14c-2.12,2.5 -5.24,3.74 -9.35,3.74 -3.4,0 -5.99,-0.98 -7.78,-2.96 -1.78,-1.98 -2.68,-4.9 -2.7,-8.78l0 -20.78 5.46 0 0 20.62c0,4.83 1.97,7.25 5.91,7.25 4.17,0 6.94,-1.55 8.32,-4.65l0 -23.22 5.46 0 0 31.92 -5.2 0 -0.12 -3.14z"/>
  <path id="14" class="fil4" d="M813.65 262.28l0 -27.69 -5.05 0 0 -4.23 5.05 0 0 -3.27c0,-3.43 0.92,-6.08 2.75,-7.95 1.83,-1.87 4.42,-2.8 7.76,-2.8 1.26,0 2.51,0.17 3.75,0.5l-0.29 4.41c-0.93,-0.17 -1.92,-0.26 -2.96,-0.26 -1.77,0 -3.14,0.52 -4.1,1.55 -0.96,1.04 -1.45,2.52 -1.45,4.46l0 3.36 6.82 0 0 4.23 -6.82 0 0 27.69 -5.46 0z"/>
  <path id="15" class="fil4" d="M851.68 262.28c-0.32,-0.62 -0.57,-1.74 -0.77,-3.36 -2.54,2.64 -5.57,3.96 -9.09,3.96 -3.15,0 -5.73,-0.88 -7.74,-2.67 -2.02,-1.78 -3.03,-4.04 -3.03,-6.77 0,-3.32 1.26,-5.91 3.79,-7.74 2.53,-1.85 6.09,-2.76 10.67,-2.76l5.31 0 0 -2.51c0,-1.91 -0.56,-3.43 -1.7,-4.57 -1.15,-1.13 -2.83,-1.69 -5.05,-1.69 -1.95,0 -3.59,0.49 -4.91,1.47 -1.32,0.99 -1.97,2.18 -1.97,3.57l-5.49 0c0,-1.59 0.56,-3.14 1.69,-4.63 1.14,-1.48 2.67,-2.66 4.61,-3.52 1.94,-0.87 4.06,-1.3 6.39,-1.3 3.68,0 6.56,0.91 8.65,2.76 2.08,1.83 3.17,4.37 3.24,7.59l0 14.7c0,2.94 0.38,5.26 1.13,7l0 0.47 -5.73 0zm-9.06 -4.05c1.71,0 3.33,-0.44 4.87,-1.34 1.54,-0.89 2.65,-2.06 3.33,-3.48l0 -6.61 -4.27 0c-6.69,0 -10.04,1.98 -10.04,5.93 0,1.72 0.57,3.07 1.71,4.04 1.14,0.98 2.61,1.46 4.4,1.46z"/>
  <path id="16" class="fil4" d="M877.64 258.41c1.96,0 3.66,-0.58 5.11,-1.76 1.46,-1.18 2.27,-2.65 2.42,-4.43l5.17 0c-0.11,1.84 -0.73,3.58 -1.89,5.23 -1.17,1.66 -2.72,2.98 -4.65,3.96 -1.94,0.98 -3.99,1.47 -6.16,1.47 -4.34,0 -7.81,-1.45 -10.38,-4.35 -2.56,-2.9 -3.85,-6.88 -3.85,-11.92l0 -0.91c0,-3.11 0.58,-5.88 1.72,-8.3 1.14,-2.41 2.78,-4.3 4.91,-5.64 2.14,-1.34 4.66,-2 7.57,-2 3.59,0 6.56,1.07 8.94,3.21 2.36,2.15 3.62,4.94 3.79,8.35l-5.17 0c-0.15,-2.06 -0.94,-3.76 -2.35,-5.09 -1.4,-1.33 -3.14,-2 -5.21,-2 -2.77,0 -4.92,1 -6.45,2.99 -1.52,2.01 -2.28,4.89 -2.28,8.68l0 1.03c0,3.67 0.75,6.51 2.27,8.5 1.51,1.98 3.68,2.98 6.49,2.98z"/>
  <path id="17" class="fil4" d="M903.92 222.62l0 7.74 5.95 0 0 4.23 -5.95 0 0 19.8c0,1.28 0.26,2.24 0.79,2.88 0.53,0.64 1.43,0.96 2.71,0.96 0.64,0 1.5,-0.12 2.6,-0.35l0 4.42c-1.44,0.38 -2.83,0.58 -4.19,0.58 -2.44,0 -4.28,-0.73 -5.52,-2.21 -1.24,-1.47 -1.85,-3.57 -1.85,-6.28l0 -19.8 -5.83 0 0 -4.23 5.83 0 0 -7.74 5.46 0z"/>
  <path id="18" class="fil4" d="M935.95 259.14c-2.12,2.5 -5.24,3.74 -9.35,3.74 -3.41,0 -6,-0.98 -7.78,-2.96 -1.79,-1.98 -2.68,-4.9 -2.7,-8.78l0 -20.78 5.46 0 0 20.62c0,4.83 1.96,7.25 5.9,7.25 4.17,0 6.94,-1.55 8.33,-4.65l0 -23.22 5.46 0 0 31.92 -5.2 0 -0.12 -3.14z"/>
  <path id="19" class="fil4" d="M964.99 235.23c-0.82,-0.14 -1.72,-0.21 -2.68,-0.21 -3.58,0 -6.01,1.52 -7.29,4.57l0 22.69 -5.46 0 0 -31.92 5.31 0 0.09 3.68c1.79,-2.85 4.33,-4.28 7.62,-4.28 1.06,0 1.87,0.14 2.41,0.41l0 5.06z"/>
  <path id="20" class="fil4" d="M975.97 262.28l-5.47 0 0 -31.92 5.47 0 0 31.92zm-5.91 -40.41c0,-0.89 0.27,-1.64 0.81,-2.26 0.54,-0.61 1.35,-0.92 2.41,-0.92 1.06,0 1.87,0.31 2.41,0.92 0.56,0.62 0.83,1.37 0.83,2.26 0,0.88 -0.27,1.63 -0.83,2.22 -0.54,0.6 -1.35,0.89 -2.41,0.89 -1.06,0 -1.87,-0.29 -2.41,-0.89 -0.54,-0.59 -0.81,-1.34 -0.81,-2.22z"/>
  <path id="21" class="fil4" d="M989.87 230.36l0.17 4c2.44,-3.07 5.63,-4.6 9.56,-4.6 6.75,0 10.16,3.81 10.22,11.42l0 21.1 -5.46 0 0 -21.12c-0.02,-2.29 -0.55,-4 -1.58,-5.1 -1.03,-1.09 -2.64,-1.65 -4.83,-1.65 -1.76,0 -3.33,0.48 -4.67,1.41 -1.33,0.95 -2.37,2.19 -3.12,3.72l0 22.74 -5.46 0 0 -31.92 5.17 0z"/>
  <path id="22" class="fil4" d="M1016.75 246.06c0,-4.99 1.15,-8.95 3.46,-11.89 2.29,-2.94 5.35,-4.41 9.14,-4.41 3.9,0 6.95,1.38 9.12,4.13l0.27 -3.53 4.99 0 0 31.15c0,4.14 -1.23,7.39 -3.68,9.78 -2.44,2.37 -5.74,3.56 -9.87,3.56 -2.3,0 -4.55,-0.49 -6.76,-1.47 -2.2,-0.98 -3.88,-2.32 -5.05,-4.04l2.84 -3.27c2.34,2.87 5.2,4.31 8.59,4.31 2.66,0 4.72,-0.75 6.21,-2.24 1.49,-1.49 2.23,-3.59 2.23,-6.29l0 -2.74c-2.19,2.51 -5.17,3.77 -8.95,3.77 -3.73,0 -6.76,-1.5 -9.07,-4.51 -2.31,-3.01 -3.47,-7.12 -3.47,-12.31zm5.49 0.61c0,3.6 0.74,6.42 2.22,8.48 1.47,2.05 3.53,3.08 6.19,3.08 3.45,0 5.98,-1.56 7.59,-4.69l0 -14.56c-1.67,-3.05 -4.18,-4.57 -7.53,-4.57 -2.66,0 -4.73,1.03 -6.22,3.09 -1.5,2.07 -2.25,5.12 -2.25,9.17z"/>
  <path class="fil4" d="M412.8 145.72c0,-4.41 -1.59,-7.84 -4.78,-10.22 -3.19,-2.41 -8.93,-4.82 -17.22,-7.28 -8.3,-2.43 -14.92,-5.17 -19.82,-8.17 -9.37,-5.76 -14.08,-13.29 -14.08,-22.57 0,-8.13 3.38,-14.81 10.16,-20.07 6.77,-5.27 15.56,-7.89 26.35,-7.89 7.17,0 13.55,1.3 19.17,3.87 5.61,2.6 10.03,6.26 13.24,11.05 3.18,4.77 4.8,10.06 4.8,15.89l-17.82 0c0,-5.26 -1.69,-9.37 -5.07,-12.32 -3.36,-2.98 -8.19,-4.46 -14.46,-4.46 -5.85,0 -10.39,1.22 -13.62,3.66 -3.24,2.43 -4.86,5.83 -4.86,10.22 0,3.68 1.76,6.75 5.24,9.21 3.5,2.46 9.25,4.84 17.27,7.18 8.02,2.31 14.46,4.98 19.32,7.96 4.85,2.97 8.4,6.4 10.67,10.25 2.27,3.87 3.4,8.38 3.4,13.55 0,8.41 -3.28,15.09 -9.87,20.07 -6.57,4.96 -15.5,7.44 -26.78,7.44 -7.44,0 -14.3,-1.35 -20.55,-4.06 -6.26,-2.69 -11.11,-6.42 -14.56,-11.17 -3.48,-4.75 -5.22,-10.3 -5.22,-16.63l17.92 0c0,5.72 1.93,10.14 5.79,13.28 3.87,3.14 9.4,4.7 16.62,4.7 6.23,0 10.91,-1.23 14.05,-3.71 3.14,-2.46 4.71,-5.72 4.71,-9.78z"/>
  <path id="1" class="fil4" d="M466.29 78.73l0 18.13 13.5 0 0 12.47 -13.5 0 0 41.78c0,2.85 0.58,4.93 1.74,6.18 1.13,1.28 3.21,1.92 6.18,1.92 1.98,0 3.98,-0.24 6.01,-0.69l0 12.99c-3.91,1.06 -7.68,1.58 -11.32,1.58 -13.21,0 -19.8,-7.13 -19.8,-21.37l0 -42.39 -12.61 0 0 -12.47 12.61 0 0 -18.13 17.19 0z"/>
  <path id="2" class="fil4" d="M526.61 173.09c-10.89,0 -19.73,-3.35 -26.49,-10.06 -6.76,-6.73 -10.16,-15.66 -10.16,-26.82l0 -2.08c0,-7.47 1.47,-14.15 4.44,-20.03 2.94,-5.88 7.07,-10.46 12.41,-13.74 5.31,-3.28 11.25,-4.91 17.82,-4.91 10.43,0 18.48,3.26 24.15,9.77 5.7,6.52 8.52,15.73 8.52,27.63l0 6.8 -50.01 0c0.53,6.17 2.64,11.03 6.33,14.6 3.72,3.59 8.38,5.38 13.98,5.38 7.87,0 14.3,-3.09 19.25,-9.3l9.27 8.64c-3.07,4.49 -7.17,7.96 -12.29,10.41 -5.12,2.48 -10.84,3.71 -17.22,3.71zm-2.05 -64.18c-4.71,0 -8.53,1.63 -11.42,4.86 -2.9,3.24 -4.76,7.77 -5.56,13.56l32.75 0 0 -1.26c-0.36,-5.64 -1.91,-9.91 -4.59,-12.82 -2.68,-2.9 -6.42,-4.34 -11.18,-4.34z"/>
  <path id="3" class="fil4" d="M610.74 112.14c-2.27,-0.35 -4.61,-0.54 -7,-0.54 -7.87,0 -13.18,2.95 -15.91,8.85l0 51.22 -17.2 0 0 -74.81 16.4 0 0.44 8.34c4.15,-6.49 9.9,-9.75 17.26,-9.75 2.44,0 4.47,0.33 6.09,0.97l-0.08 15.72z"/>
  <path id="4" class="fil4" d="M653.97 173.09c-10.89,0 -19.73,-3.35 -26.49,-10.06 -6.76,-6.73 -10.17,-15.66 -10.17,-26.82l0 -2.08c0,-7.47 1.48,-14.15 4.45,-20.03 2.94,-5.88 7.07,-10.46 12.41,-13.74 5.31,-3.28 11.25,-4.91 17.82,-4.91 10.43,0 18.47,3.26 24.15,9.77 5.7,6.52 8.52,15.73 8.52,27.63l0 6.8 -50.01 0c0.53,6.17 2.63,11.03 6.33,14.6 3.72,3.59 8.38,5.38 13.98,5.38 7.87,0 14.3,-3.09 19.25,-9.3l9.27 8.64c-3.07,4.49 -7.17,7.96 -12.29,10.41 -5.12,2.48 -10.85,3.71 -17.22,3.71zm-2.05 -64.18c-4.71,0 -8.53,1.63 -11.43,4.86 -2.89,3.24 -4.75,7.77 -5.55,13.56l32.75 0 0 -1.26c-0.37,-5.64 -1.91,-9.91 -4.59,-12.82 -2.68,-2.9 -6.43,-4.34 -11.18,-4.34z"/>
  <path id="5" class="fil4" d="M694.73 133.58c0,-7.34 1.5,-13.95 4.47,-19.83 2.97,-5.88 7.15,-10.39 12.53,-13.56 5.36,-3.16 11.54,-4.74 18.52,-4.74 10.34,0 18.72,3.26 25.17,9.75 6.42,6.52 9.9,15.14 10.43,25.88l0.07 3.94c0,7.4 -1.45,13.98 -4.35,19.79 -2.92,5.81 -7.05,10.32 -12.46,13.51 -5.41,3.19 -11.64,4.77 -18.71,4.77 -10.8,0 -19.44,-3.52 -25.94,-10.56 -6.47,-7.03 -9.73,-16.41 -9.73,-28.12l0 -0.83zm17.2 1.42c0,7.7 1.64,13.72 4.9,18.09 3.23,4.37 7.77,6.54 13.57,6.54 5.79,0 10.31,-2.22 13.55,-6.64 3.23,-4.43 4.85,-10.9 4.85,-19.45 0,-7.56 -1.67,-13.56 -5,-18 -3.31,-4.41 -7.82,-6.63 -13.55,-6.63 -5.6,0 -10.07,2.17 -13.35,6.54 -3.31,4.37 -4.97,10.86 -4.97,19.55z"/>
  <path id="6" class="fil0" d="M802.07 78.73l0 18.13 13.5 0 0 12.47 -13.5 0 0 41.78c0,2.85 0.58,4.93 1.74,6.18 1.13,1.28 3.21,1.92 6.18,1.92 1.98,0 3.99,-0.24 6.01,-0.69l0 12.99c-3.91,1.06 -7.68,1.58 -11.32,1.58 -13.21,0 -19.8,-7.13 -19.8,-21.37l0 -42.39 -12.61 0 0 -12.47 12.61 0 0 -18.13 17.19 0z"/>
  <path id="7" class="fil0" d="M862.39 173.09c-10.89,0 -19.73,-3.35 -26.49,-10.06 -6.76,-6.73 -10.16,-15.66 -10.16,-26.82l0 -2.08c0,-7.47 1.47,-14.15 4.44,-20.03 2.95,-5.88 7.07,-10.46 12.41,-13.74 5.31,-3.28 11.25,-4.91 17.82,-4.91 10.43,0 18.48,3.26 24.15,9.77 5.7,6.52 8.53,15.73 8.53,27.63l0 6.8 -50.02 0c0.54,6.17 2.64,11.03 6.33,14.6 3.72,3.59 8.38,5.38 13.98,5.38 7.87,0 14.3,-3.09 19.25,-9.3l9.27 8.64c-3.07,4.49 -7.17,7.96 -12.29,10.41 -5.12,2.48 -10.84,3.71 -17.22,3.71zm-2.05 -64.18c-4.71,0 -8.52,1.63 -11.42,4.86 -2.9,3.24 -4.76,7.77 -5.56,13.56l32.75 0 0 -1.26c-0.36,-5.64 -1.91,-9.91 -4.59,-12.82 -2.68,-2.9 -6.42,-4.34 -11.18,-4.34z"/>
  <path id="8" class="fil0" d="M937.83 159.63c4.28,0 7.85,-1.23 10.68,-3.66 2.82,-2.43 4.34,-5.45 4.51,-9.04l16.2 0c-0.16,4.67 -1.66,9.02 -4.44,13.05 -2.78,4.04 -6.57,7.23 -11.32,9.59 -4.76,2.34 -9.91,3.52 -15.44,3.52 -10.69,0 -19.19,-3.4 -25.45,-10.18 -6.28,-6.77 -9.42,-16.15 -9.42,-28.1l0 -1.72c0,-11.38 3.12,-20.52 9.35,-27.37 6.23,-6.85 14.71,-10.27 25.45,-10.27 9.11,0 16.54,2.59 22.27,7.79 5.72,5.17 8.74,12 9,20.45l-16.2 0c-0.17,-4.32 -1.67,-7.84 -4.49,-10.63 -2.8,-2.76 -6.38,-4.15 -10.7,-4.15 -5.58,0 -9.87,1.98 -12.89,5.92 -3.02,3.95 -4.54,9.92 -4.59,17.95l0 2.69c0,8.13 1.5,14.17 4.49,18.16 2.99,3.99 7.32,6 12.99,6z"/>
  <path id="9" class="fil0" d="M999.19 104.99c5.6,-6.36 12.7,-9.54 21.3,-9.54 16.3,0 24.58,9.11 24.83,27.32l0 48.9 -17.2 0 0 -48.29c0,-5.17 -1.13,-8.83 -3.43,-10.98 -2.29,-2.15 -5.65,-3.21 -10.07,-3.21 -6.9,0 -12.05,3 -15.43,9l0 53.48 -17.19 0 0 -106.26 17.19 0 0 39.58z"/>
  <rect class="fil2" x="411.68" y="193.55" width="575.68" height="6.69"/>
 </g>
</svg>
